<?xml version="1.0" encoding="UTF-8"?>
<svg version="1.1" xmlns="http://www.w3.org/2000/svg" width="119" height="119">
<path d="M0 0 C1.33557043 -0.66217358 2.66861596 -1.32944891 4 -2 C8.99295322 -2.70857092 12.91664358 -2.55152691 17.4375 -0.25 C20 2 20 2 21.5 4.0625 C22.9811786 6.26977664 22.9811786 6.26977664 26.0625 7.5 C29.14130793 9.07215724 29.9008217 9.81238294 31 13 C31 12.34 31 11.68 31 11 C34 9 34 9 36 9.25 C38 10 38 10 41 12 C41 12.66 41 13.32 41 14 C41.66 14 42.32 14 43 14 C43.375 16.125 43.375 16.125 43 19 C41.20659643 21.23913252 39.16547337 23.12454539 37 25 C37.495 25.39960937 37.99 25.79921875 38.5 26.2109375 C40.45424834 28.54178579 40.22763576 29.6372807 40 32.625 C39.86235542 36.4074731 40.21032502 39.15244165 41.5625 42.6875 C43.12726139 46.79954737 42.86946375 49.65268127 42 54 C42.33 54.99 42.66 55.98 43 57 C43.42582782 63.49387426 42.75099243 67.69880908 38.4375 72.875 C37 74 37 74 35 74 C35 74.66 35 75.32 35 76 C35.66 76 36.32 76 37 76 C37 76.66 37 77.32 37 78 C37.66 78 38.32 78 39 78 C39.042721 79.66611905 39.04063832 81.33382885 39 83 C38 84 38 84 35.25 84.375 C31.00764168 83.88549712 29.70439649 82.18164293 27 79 C26.505 80.216875 26.01 81.43375 25.5 82.6875 C23.05623914 87.49812015 20.07099155 90.12763389 15 92 C8.91344769 92.96347251 5.19613042 92.26613912 0 89 C-2.7004039 89.64663567 -2.7004039 89.64663567 -5 91 C-8.71204487 92.85602244 -12.9487305 92.44875601 -17 92 C-21.89612733 89.55193634 -25.72044884 86.09817248 -27.84375 80.95703125 C-29.33091114 78.43991054 -30.52101838 78.12964842 -33.25 77.1875 C-38.14918573 75.14090467 -41.48355103 72.76231204 -44 68 C-45.04898127 63.77768547 -45.36870098 59.81470012 -44.5 55.5390625 C-43.78503468 51.90837922 -44.03081843 48.40229098 -44.16015625 44.71875 C-43.98530021 41.7504621 -43.1164378 39.7344004 -42 37 C-41.79724005 34.62865605 -41.79724005 34.62865605 -41.9375 32.3125 C-42.09672387 28.19344774 -42.09672387 28.19344774 -41 26 C-41.99 25.67 -42.98 25.34 -44 25 C-44.33 30.94 -44.66 36.88 -45 43 C-46.65 43 -48.3 43 -50 43 C-51.67691362 41.32308638 -51.17155127 39.29661712 -51.1875 37 C-51.15298188 31.71872697 -50.33724345 27.09824064 -49 22 C-49.66 22 -50.32 22 -51 22 C-51 20.68 -51 19.36 -51 18 C-49.46875 16.515625 -49.46875 16.515625 -47.5 15.25 C-46.8503125 14.82203125 -46.200625 14.3940625 -45.53125 13.953125 C-45.0259375 13.63859375 -44.520625 13.3240625 -44 13 C-42.125 13.625 -42.125 13.625 -40 15 C-38.75 18.125 -38.75 18.125 -38 21 C-37.649375 19.80375 -37.29875 18.6075 -36.9375 17.375 C-34.42373955 10.6438405 -28.97317083 7.5136299 -23 4 C-22.67 3.34 -22.34 2.68 -22 2 C-21.34 2 -20.68 2 -20 2 C-20 1.34 -20 0.68 -20 0 C-13.4956217 -3.77673579 -6.78317548 -2.26105849 0 0 Z M-16 6 C-16 6.66 -16 7.32 -16 8 C-16.66 8 -17.32 8 -18 8 C-18.33 9.32 -18.66 10.64 -19 12 C-18.360625 12.12375 -17.72125 12.2475 -17.0625 12.375 C-16.381875 12.58125 -15.70125 12.7875 -15 13 C-14.67 13.66 -14.34 14.32 -14 15 C-12.02 15 -10.04 15 -8 15 C-8 16.98 -8 18.96 -8 21 C-7.01 21.33 -6.02 21.66 -5 22 C-4.97307516 19.70839681 -4.95363876 17.41670454 -4.9375 15.125 C-4.92589844 13.84882813 -4.91429687 12.57265625 -4.90234375 11.2578125 C-4.76823431 8.11335348 -4.76823431 8.11335348 -6 6 C-6.66 6 -7.32 6 -8 6 C-8 5.34 -8 4.68 -8 4 C-11.71599191 3.79913557 -12.77208445 3.8480563 -16 6 Z M4.75 5.8125 C2.68765248 7.92353993 2.68765248 7.92353993 3 11 C3.60328125 11.09796875 4.2065625 11.1959375 4.828125 11.296875 C13.10431655 12.84532374 13.10431655 12.84532374 16 17 C16 17.99 16 18.98 16 20 C15.34 20.33 14.68 20.66 14 21 C14 23.31 14 25.62 14 28 C14.66 28 15.32 28 16 28 C16 27.34 16 26.68 16 26 C16.66 26 17.32 26 18 26 C18 25.34 18 24.68 18 24 C18.66 24 19.32 24 20 24 C20 23.34 20 22.68 20 22 C20.66 22 21.32 22 22 22 C24.66666667 19.66666667 24.66666667 19.66666667 27 17 C27 16.34 27 15.68 27 15 C27.66 15 28.32 15 29 15 C28.67 14.34 28.34 13.68 28 13 C27.2265625 13.3403125 27.2265625 13.3403125 26.4375 13.6875 C22.63117984 14.17548976 20.31239558 12.80676122 17 11 C15.25 8.4375 15.25 8.4375 14 6 C10.32131594 3.54754396 8.32771558 2.93045134 4.75 5.8125 Z M3 17 C3 24.26 3 31.52 3 39 C3.66 39 4.32 39 5 39 C5 38.34 5 37.68 5 37 C5.66 37 6.32 37 7 37 C8.35712166 35.44144019 8.35712166 35.44144019 9.625 33.5 C10.07101563 32.8503125 10.51703125 32.200625 10.9765625 31.53125 C11.31429687 31.0259375 11.65203125 30.520625 12 30 C10.68 29.34 9.36 28.68 8 28 C8 24.37 8 20.74 8 17 C6.35 17 4.7 17 3 17 Z M-30 19 C-29.67 19.99 -29.34 20.98 -29 22 C-29 21.01 -29 20.02 -29 19 C-29.33 19 -29.66 19 -30 19 Z M-33 27 C-35.21224819 30.31837229 -35.35715143 31.16062208 -35 35 C-34.39072482 37.01822402 -33.73519522 39.02416285 -33 41 C-33.66 41 -34.32 41 -35 41 C-37.34168764 44.51253146 -37.49623677 45.86469356 -37 50 C-35.12230858 52.84920053 -35.12230858 52.84920053 -33 55 C-30.58686871 54.53078003 -28.19380821 54.0498364 -25.8125 53.4375 C-24 53 -24 53 -22 53 C-22 52.34 -22 51.68 -22 51 C-22.66 51 -23.32 51 -24 51 C-24 50.34 -24 49.68 -24 49 C-24.66 49 -25.32 49 -26 49 C-26.3125 46.8125 -26.3125 46.8125 -26 44 C-24.33333333 42.33333333 -22.66666667 40.66666667 -21 39 C-20.58013054 36.28836222 -20.58013054 36.28836222 -21 34 C-23.31 33.34 -25.62 32.68 -28 32 C-28.33 30.35 -28.66 28.7 -29 27 C-30.32 27 -31.64 27 -33 27 Z M-8 27 C-8 28.65 -8 30.3 -8 32 C-9.7578125 32.65104167 -11.515625 33.30208333 -13.2734375 33.953125 C-15.48685081 35.08545005 -15.48685081 35.08545005 -17 39 C-13.7 42.3 -10.4 45.6 -7 49 C-4.03 46.525 -4.03 46.525 -1 44 C-2.32 43.67 -3.64 43.34 -5 43 C-5 37.72 -5 32.44 -5 27 C-5.99 27 -6.98 27 -8 27 Z M34 27 C33.67 27.66 33.34 28.32 33 29 C33.66 29 34.32 29 35 29 C34.67 28.34 34.34 27.68 34 27 Z M28.94897461 31.90576172 C28.30838608 32.5399704 27.66779755 33.17417908 27.00779724 33.8276062 C26.31299759 34.52129303 25.61819794 35.21497986 24.90234375 35.9296875 C24.19348526 36.63521759 23.48462677 37.34074768 22.75428772 38.06765747 C21.25242584 39.56444441 19.75193199 41.06260505 18.25268555 42.56201172 C15.94925871 44.86325245 13.63797012 47.15639189 11.32617188 49.44921875 C9.87190592 50.90055092 8.41811383 52.35235812 6.96484375 53.8046875 C6.26801987 54.49432587 5.57119598 55.18396423 4.85325623 55.89450073 C4.21581985 56.53501373 3.57838348 57.17552673 2.92163086 57.83544922 C2.3561705 58.39948456 1.79071014 58.9635199 1.20811462 59.54464722 C-0.21290774 60.94123678 -0.21290774 60.94123678 0 63 C0.66 63.33 1.32 63.66 2 64 C2.01417969 65.16917969 2.02835938 66.33835938 2.04296875 67.54296875 C2.08988438 69.09118457 2.13813169 70.63936044 2.1875 72.1875 C2.19330078 72.95642578 2.19910156 73.72535156 2.20507812 74.51757812 C2.36973765 78.78043032 2.66736546 80.56735408 5.3515625 84.05859375 C7.8819142 86.33576736 7.8819142 86.33576736 11.1875 85.875 C13.91676968 85.10883205 13.91676968 85.10883205 16 84 C16 83.34 16 82.68 16 82 C16.66 82 17.32 82 18 82 C18.33 80.02 18.66 78.04 19 76 C17.7625 75.7525 16.525 75.505 15.25 75.25 C11.44223364 74.32160467 9.59593658 72.99531144 7 70 C6.34 70 5.68 70 5 70 C5.18960638 60.15770517 5.18960638 60.15770517 8.1875 55.875 C11.38670498 53.74219668 13.16145557 53.07677089 17 53 C20.94875332 53.87006429 23.63046649 54.75364432 27 57 C27 56.34 27 55.68 27 55 C27.763125 54.9175 28.52625 54.835 29.3125 54.75 C32.04453535 54.20137359 32.04453535 54.20137359 33.8125 52.375 C35.41568775 49.1686245 35.20379759 46.53249148 35 43 C34.34 43 33.68 43 33 43 C33 42.34 33 41.68 33 41 C32.34 41 31.68 41 31 41 C31.33 40.13375 31.66 39.2675 32 38.375 C32.98731341 35.04281725 33.16420974 32.44840462 33 29 C31.19955043 29 30.16685022 30.69608433 28.94897461 31.90576172 Z M0 41 C-0.33 41.66 -0.66 42.32 -1 43 C-0.34 43 0.32 43 1 43 C0.67 42.34 0.34 41.68 0 41 Z M-21 54 C-21.6496875 55.2065625 -21.6496875 55.2065625 -22.3125 56.4375 C-24 59 -24 59 -27 60 C-28.72795352 60.06802967 -30.45835365 60.08495645 -32.1875 60.0625 C-33.53908203 60.04896484 -33.53908203 60.04896484 -34.91796875 60.03515625 C-35.60503906 60.02355469 -36.29210938 60.01195312 -37 60 C-36.630322 65.09574068 -36.630322 65.09574068 -34.0625 69.375 C-30.25156865 72.37755197 -26.73386206 72.53352954 -22 72 C-19.34648721 70.37365345 -19.08493838 69.33203185 -18.3125 66.3125 C-18.209375 65.549375 -18.10625 64.78625 -18 64 C-15.525 64.495 -15.525 64.495 -13 65 C-12.6875 67.6875 -12.6875 67.6875 -13 71 C-15.375 73.75 -15.375 73.75 -18 76 C-18.66 76.66 -19.32 77.32 -20 78 C-20 79.32 -20 80.64 -20 82 C-19.34 82 -18.68 82 -18 82 C-18 82.66 -18 83.32 -18 84 C-15.39385869 85.70401547 -14.10024068 86.00613718 -10.9375 85.8125 C-7.74008301 84.92810807 -6.85726598 84.67915955 -5 82 C-4.62325482 79.20748417 -4.39808059 76.61220799 -4.3125 73.8125 C-4.27833984 73.06291016 -4.24417969 72.31332031 -4.20898438 71.54101562 C-4.12665706 69.69453162 -4.06164719 67.84729006 -4 66 C-4.72960938 65.76410156 -5.45921875 65.52820313 -6.2109375 65.28515625 C-9.44428317 63.79528128 -11.20302771 62.03009234 -13.625 59.4375 C-16.80578205 55.95042922 -16.80578205 55.95042922 -21 54 Z M12.0625 59.5625 C10.54173781 63.05130737 11.05864102 65.36904394 12 69 C14.68026455 71.24180162 14.68026455 71.24180162 17 70.8125 C19.40618987 69.83498536 20.51717922 69.15009013 22 67 C22.42478586 62.92205575 22.31282587 61.46923881 20 58 C16.57768075 57.49029288 14.8043289 57.35134766 12.0625 59.5625 Z M35 59 C33.02 59.66 31.04 60.32 29 61 C28.67 63.97 28.34 66.94 28 70 C30.42267086 70.05167527 30.42267086 70.05167527 33 69 C34.99148816 65.68657612 34.99148816 65.68657612 36 62 C35.67 61.01 35.34 60.02 35 59 Z " fill="#467A84" transform="translate(63,16)"/>
<path d="M0 0 C0.66 0 1.32 0 2 0 C1.88521587 2.06309376 1.75773802 4.12548354 1.625 6.1875 C1.55539063 7.33605469 1.48578125 8.48460937 1.4140625 9.66796875 C1.02232941 12.82031143 0.23042966 15.1025366 -1 18 C-1.16757757 21.20870233 -1.16757757 21.20870233 -1 24 C-0.01 22.68 0.98 21.36 2 20 C4 21 4 21 5.3125 24 C6.69033947 27.1910205 6.69033947 27.1910205 9.5625 28 C10.366875 28 11.17125 28 12 28 C12.66 27.34 13.32 26.68 14 26 C16.625 26.375 16.625 26.375 19 27 C19.6875 28.8125 19.6875 28.8125 20 31 C18.15840327 33.48615558 16.99529289 34.00156904 14 35 C10.31617231 35.13156527 7.50946415 35.16982138 4 34 C4.60861347 39.99675221 4.60861347 39.99675221 8 44.5625 C12.34439412 45.19605748 16.61912668 45.1531179 21 45 C21.33 42.69 21.66 40.38 22 38 C24.375 37.375 24.375 37.375 27 37 C29 39 29 39 29.375 41.8125 C28.9146132 45.72578781 27.7164999 47.20588581 25 50 C24.01 50.66 23.02 51.32 22 52 C21.27617533 54.05925139 21.27617533 54.05925139 21 56 C21.66 56 22.32 56 23 56 C23 56.66 23 57.32 23 58 C26.65629291 58.7886122 29.15360577 59.31800939 32.703125 57.984375 C35.35655055 56.11996973 35.35655055 56.11996973 35.56640625 52.56640625 C35.58893414 51.23196034 35.58680861 49.89691466 35.5625 48.5625 C35.56929193 41.61435062 35.56929193 41.61435062 37.77734375 38.46484375 C40 37 40 37 42.13891602 37.40844727 C42.75307373 37.60365967 43.36723145 37.79887207 44 38 C44.02578125 39.18078125 44.0515625 40.3615625 44.078125 41.578125 C44.13441397 43.13545323 44.19176114 44.69274347 44.25 46.25 C44.26417969 47.02730469 44.27835938 47.80460937 44.29296875 48.60546875 C44.45261234 52.34112886 44.60707996 54.43474661 46.78125 57.5625 C49.35441568 59.22962142 50.29015405 59.34196919 53.25 58.75 C54.4875 58.5025 55.725 58.255 57 58 C57 57.34 57 56.68 57 56 C57.66 56 58.32 56 59 56 C59.33 54.02 59.66 52.04 60 50 C59.13375 50.0825 58.2675 50.165 57.375 50.25 C53.20709412 49.94126623 51.21472226 48.60239421 48 46 C48 45.34 48 44.68 48 44 C47.34 44 46.68 44 46 44 C45.38557021 34.25446082 45.38557021 34.25446082 47.5 29.9375 C50.84148278 27.34785085 53.7846185 26.29044528 58 26 C64.2 27.2 64.2 27.2 67 30 C71.70842624 27.88673474 71.70842624 27.88673474 75 24 C75.39387788 21.67612053 75.73486085 19.34206251 76 17 C75.34 17 74.68 17 74 17 C74 16.34 74 15.68 74 15 C73.34 15 72.68 15 72 15 C72.66666667 11 73.33333333 7 74 3 C74.66 3 75.32 3 76 3 C76.33 2.01 76.66 1.02 77 0 C78.32 0.66 79.64 1.32 81 2 C80.96519531 2.61746094 80.93039063 3.23492187 80.89453125 3.87109375 C80.71461325 9.49995684 81.40835152 13.65450516 83.40234375 18.89453125 C84.30335321 22.06867568 83.63696253 24.81518733 83 28 C83.495 29.485 83.495 29.485 84 31 C84.42582782 37.49387426 83.75099243 41.69880908 79.4375 46.875 C78 48 78 48 76 48 C76 48.66 76 49.32 76 50 C76.66 50 77.32 50 78 50 C78 50.66 78 51.32 78 52 C78.66 52 79.32 52 80 52 C80.042721 53.66611905 80.04063832 55.33382885 80 57 C79 58 79 58 76.25 58.375 C72.00764168 57.88549712 70.70439649 56.18164293 68 53 C67.505 54.216875 67.01 55.43375 66.5 56.6875 C64.05623914 61.49812015 61.07099155 64.12763389 56 66 C49.91344769 66.96347251 46.19613042 66.26613912 41 63 C38.2995961 63.64663567 38.2995961 63.64663567 36 65 C32.28795513 66.85602244 28.0512695 66.44875601 24 66 C19.10387267 63.55193634 15.27955116 60.09817248 13.15625 54.95703125 C11.66908886 52.43991054 10.47898162 52.12964842 7.75 51.1875 C2.85081427 49.14090467 -0.48355103 46.76231204 -3 42 C-4.04898127 37.77768547 -4.36870098 33.81470012 -3.5 29.5390625 C-2.78503468 25.90837922 -3.03081843 22.40229098 -3.16015625 18.71875 C-2.98530021 15.7504621 -2.1164378 13.7344004 -1 11 C-0.79724005 8.62865605 -0.79724005 8.62865605 -0.9375 6.3125 C-1.09672387 2.19344774 -1.09672387 2.19344774 0 0 Z M53.0625 33.5625 C51.54173781 37.05130737 52.05864102 39.36904394 53 43 C55.68026455 45.24180162 55.68026455 45.24180162 58 44.8125 C60.40618987 43.83498536 61.51717922 43.15009013 63 41 C63.42478586 36.92205575 63.31282587 35.46923881 61 32 C57.57768075 31.49029288 55.8043289 31.35134766 53.0625 33.5625 Z M76 33 C74.02 33.66 72.04 34.32 70 35 C69.67 37.97 69.34 40.94 69 44 C71.42267086 44.05167527 71.42267086 44.05167527 74 43 C75.99148816 39.68657612 75.99148816 39.68657612 77 36 C76.67 35.01 76.34 34.02 76 33 Z " fill="#2B6774" transform="translate(22,42)"/>
<path d="M0 0 C2 0.75 2 0.75 5 2.75 C5 3.41 5 4.07 5 4.75 C5.66 4.75 6.32 4.75 7 4.75 C7.33174048 7.88247777 7.31326554 9.3160569 5.43916321 11.91210938 C4.70811874 12.63205078 3.97707428 13.35199219 3.22387695 14.09375 C1.98677727 15.3302832 1.98677727 15.3302832 0.72468567 16.59179688 C-0.17832779 17.46900391 -1.08134125 18.34621094 -2.01171875 19.25 C-2.93209427 20.16330078 -3.85246979 21.07660156 -4.80073547 22.01757812 C-7.24900245 24.44676909 -9.71188885 26.86059422 -12.17816162 29.27148438 C-14.67126966 31.71367974 -17.15052582 34.1698435 -19.63085938 36.625 C-24.05247881 40.9983544 -28.48380182 45.36161748 -32.93257141 49.70736694 C-34.6365055 51.39086504 -36.2955946 53.1038319 -37.94677734 54.83837891 C-40 56.75 -40 56.75 -42.52734375 56.8359375 C-45.59092588 55.49047805 -47.28643986 53.82126986 -49.5625 51.375 C-51.7299527 49.06855987 -53.71999452 46.95460091 -56.27734375 45.0859375 C-56.84582031 44.64507812 -57.41429687 44.20421875 -58 43.75 C-58 43.09 -58 42.43 -58 41.75 C-58.66 41.75 -59.32 41.75 -60 41.75 C-60 41.09 -60 40.43 -60 39.75 C-60.66 39.75 -61.32 39.75 -62 39.75 C-62.75 37.5625 -62.75 37.5625 -63 34.75 C-61.1875 31.9375 -61.1875 31.9375 -59 29.75 C-58.34 29.75 -57.68 29.75 -57 29.75 C-57 28.76 -57 27.77 -57 26.75 C-55 26.75 -55 26.75 -52.8125 28.8125 C-51.87381518 29.79053089 -50.9364761 30.76985403 -50 31.75 C-48.73180051 33.02346173 -47.46090847 34.29424703 -46.1875 35.5625 C-45.125 36.625 -44.0625 37.6875 -43 38.75 C-42.05125 37.925 -41.1025 37.1 -40.125 36.25 C-37.25 33.75 -37.25 33.75 -35 33.75 C-34.34 32.43 -33.68 31.11 -33 29.75 C-32.34 29.75 -31.68 29.75 -31 29.75 C-31 29.09 -31 28.43 -31 27.75 C-30.34 27.75 -29.68 27.75 -29 27.75 C-28.773125 27.193125 -28.54625 26.63625 -28.3125 26.0625 C-26.62449964 23.08840412 -24.53323483 21.02991135 -22 18.75 C-21.34 18.75 -20.68 18.75 -20 18.75 C-20 18.09 -20 17.43 -20 16.75 C-19.34 16.75 -18.68 16.75 -18 16.75 C-18 16.09 -18 15.43 -18 14.75 C-17.34 14.75 -16.68 14.75 -16 14.75 C-16 14.09 -16 13.43 -16 12.75 C-15.34 12.75 -14.68 12.75 -14 12.75 C-13.731875 12.110625 -13.46375 11.47125 -13.1875 10.8125 C-12 8.75 -12 8.75 -9 7.75 C-9 7.09 -9 6.43 -9 5.75 C-8.34 5.75 -7.68 5.75 -7 5.75 C-7 5.09 -7 4.43 -7 3.75 C-6.34 3.75 -5.68 3.75 -5 3.75 C-5 3.09 -5 2.43 -5 1.75 C-2 -0.25 -2 -0.25 0 0 Z " fill="#EDA538" transform="translate(99,25.25)"/>
<path d="M0 0 C0.556875 0.37125 1.11375 0.7425 1.6875 1.125 C1.6875 2.115 1.6875 3.105 1.6875 4.125 C0.0375 4.785 -1.6125 5.445 -3.3125 6.125 C-3.3125 6.785 -3.3125 7.445 -3.3125 8.125 C-3.9725 8.125 -4.6325 8.125 -5.3125 8.125 C-5.3125 9.775 -5.3125 11.425 -5.3125 13.125 C-9.0625 15.125 -9.0625 15.125 -11.3125 15.125 C-12.3025 17.435 -13.2925 19.745 -14.3125 22.125 C-14.9725 21.465 -15.6325 20.805 -16.3125 20.125 C-16.3125 22.435 -16.3125 24.745 -16.3125 27.125 C-17.6325 27.125 -18.9525 27.125 -20.3125 27.125 C-20.498125 28.424375 -20.68375 29.72375 -20.875 31.0625 C-20.97941406 31.79339844 -21.08382813 32.52429687 -21.19140625 33.27734375 C-21.23136719 33.88707031 -21.27132813 34.49679688 -21.3125 35.125 C-20.8175 35.62 -20.8175 35.62 -20.3125 36.125 C-20.27186168 37.79117115 -20.269779 39.45888095 -20.3125 41.125 C-20.9725 41.125 -21.6325 41.125 -22.3125 41.125 C-22.9725 43.105 -23.6325 45.085 -24.3125 47.125 C-24.9725 47.125 -25.6325 47.125 -26.3125 47.125 C-27.69482443 48.75126404 -29.03187515 50.4175002 -30.3125 52.125 C-30.56313163 44.73136685 -30.56313163 44.73136685 -29.34375 41.78125 C-28.09730285 38.57070431 -27.89545036 35.74368097 -27.6875 32.3125 C-27.61273438 31.15105469 -27.53796875 29.98960938 -27.4609375 28.79296875 C-27.41195313 27.91253906 -27.36296875 27.03210938 -27.3125 26.125 C-28.6325 25.795 -29.9525 25.465 -31.3125 25.125 C-31.6425 31.065 -31.9725 37.005 -32.3125 43.125 C-33.9625 43.125 -35.6125 43.125 -37.3125 43.125 C-38.98941362 41.44808638 -38.48405127 39.42161712 -38.5 37.125 C-38.46548188 31.84372697 -37.64974345 27.22324064 -36.3125 22.125 C-36.9725 22.125 -37.6325 22.125 -38.3125 22.125 C-38.3125 20.805 -38.3125 19.485 -38.3125 18.125 C-36.78125 16.640625 -36.78125 16.640625 -34.8125 15.375 C-34.1628125 14.94703125 -33.513125 14.5190625 -32.84375 14.078125 C-32.3384375 13.76359375 -31.833125 13.4490625 -31.3125 13.125 C-29.4375 13.75 -29.4375 13.75 -27.3125 15.125 C-26.0625 18.25 -26.0625 18.25 -25.3125 21.125 C-24.961875 19.92875 -24.61125 18.7325 -24.25 17.5 C-21.74296507 10.78684959 -16.28625612 7.60969107 -10.3125 4.125 C-9.8175 3.609375 -9.3225 3.09375 -8.8125 2.5625 C-6.09828998 -0.03861793 -3.61330149 -1.36719516 0 0 Z " fill="#3A747E" transform="translate(50.3125,15.875)"/>
<path d="M0 0 C1.32 0.66 2.64 1.32 4 2 C3.96519531 2.61746094 3.93039063 3.23492187 3.89453125 3.87109375 C3.71461325 9.49995684 4.40835152 13.65450516 6.40234375 18.89453125 C7.30335321 22.06867568 6.63696253 24.81518733 6 28 C6.33 28.99 6.66 29.98 7 31 C7.42582782 37.49387426 6.75099243 41.69880908 2.4375 46.875 C1 48 1 48 -1 48 C-1 48.66 -1 49.32 -1 50 C-0.34 50 0.32 50 1 50 C1 50.66 1 51.32 1 52 C1.66 52 2.32 52 3 52 C3.042721 53.66611905 3.04063832 55.33382885 3 57 C2 58 2 58 -0.75 58.375 C-4.99235832 57.88549712 -6.29560351 56.18164293 -9 53 C-9.99 53.99 -10.98 54.98 -12 56 C-12 54.35 -12 52.7 -12 51 C-12.66 51 -13.32 51 -14 51 C-14 50.34 -14 49.68 -14 49 C-14.66 48.67 -15.32 48.34 -16 48 C-12.535 47.505 -12.535 47.505 -9 47 C-8.67 46.01 -8.34 45.02 -8 44 C-5.525 43.505 -5.525 43.505 -3 43 C-2.01 39.37 -1.02 35.74 0 32 C-1.6396875 32.2475 -1.6396875 32.2475 -3.3125 32.5 C-7 33 -7 33 -10 33 C-9.8125 31.125 -9.8125 31.125 -9 29 C-7.35448038 28.28272222 -5.68577711 27.61674772 -4 27 C-1.70366176 23.55549263 -1.45983515 21.06187717 -1 17 C-1.66 17 -2.32 17 -3 17 C-3 16.34 -3 15.68 -3 15 C-3.66 15 -4.32 15 -5 15 C-4.33333333 11 -3.66666667 7 -3 3 C-2.34 3 -1.68 3 -1 3 C-0.67 2.01 -0.34 1.02 0 0 Z " fill="#11414C" transform="translate(99,42)"/>
<path d="M0 0 C0.8971875 0.309375 0.8971875 0.309375 1.8125 0.625 C1.8125 1.285 1.8125 1.945 1.8125 2.625 C2.43125 2.439375 3.05 2.25375 3.6875 2.0625 C5.8125 1.625 5.8125 1.625 7.8125 2.625 C8.14583333 4.625 8.47916667 6.625 8.8125 8.625 C9.4725 8.955 10.1325 9.285 10.8125 9.625 C10.8125 11.275 10.8125 12.925 10.8125 14.625 C9.8225 14.625 8.8325 14.625 7.8125 14.625 C8.01875 15.40875 8.225 16.1925 8.4375 17 C8.56125 17.86625 8.685 18.7325 8.8125 19.625 C6.8125 21.625 6.8125 21.625 3.875 22.5625 C0.95410484 23.57587179 -0.27354685 24.28572393 -2.1875 26.625 C-2.5175 25.635 -2.8475 24.645 -3.1875 23.625 C-3.8475 23.625 -4.5075 23.625 -5.1875 23.625 C-5.1875 22.965 -5.1875 22.305 -5.1875 21.625 C-7.1675 21.625 -9.1475 21.625 -11.1875 21.625 C-13.57823445 17.79982487 -13.74716552 14.02834476 -14.1875 9.625 C-13.1975 9.295 -12.2075 8.965 -11.1875 8.625 C-10.16995132 6.7596755 -10.16995132 6.7596755 -9.5 4.5625 C-9.24863281 3.82902344 -8.99726562 3.09554688 -8.73828125 2.33984375 C-8.55652344 1.77394531 -8.37476563 1.20804688 -8.1875 0.625 C-7.1975 0.955 -6.2075 1.285 -5.1875 1.625 C-2.1875 -0.375 -2.1875 -0.375 0 0 Z " fill="#24575A" transform="translate(47.1875,28.375)"/>
<path d="M0 0 C0.66 0 1.32 0 2 0 C1.88521587 2.06309376 1.75773802 4.12548354 1.625 6.1875 C1.55539063 7.33605469 1.48578125 8.48460937 1.4140625 9.66796875 C1.02232941 12.82031143 0.23042966 15.1025366 -1 18 C-1.16757757 21.20870233 -1.16757757 21.20870233 -1 24 C-0.01 22.68 0.98 21.36 2 20 C4 21 4 21 5.3125 24 C6.69033947 27.1910205 6.69033947 27.1910205 9.5625 28 C10.366875 28 11.17125 28 12 28 C12.66 27.34 13.32 26.68 14 26 C16.625 26.375 16.625 26.375 19 27 C19.6875 28.8125 19.6875 28.8125 20 31 C18.15840327 33.48615558 16.99529289 34.00156904 14 35 C10.31617231 35.13156527 7.50946415 35.16982138 4 34 C4.60861347 39.99675221 4.60861347 39.99675221 8 44.5625 C12.34439412 45.19605748 16.61912668 45.1531179 21 45 C21 45.66 21 46.32 21 47 C20.01 47.66 19.02 48.32 18 49 C15.83382585 52.24926122 15.78664331 52.5985242 16.375 56.1875 C16.58125 57.445625 16.7875 58.70375 17 60 C15.23883002 58.39893638 14.09190745 57.21946125 13.1640625 55.00390625 C11.67523166 52.44091893 10.5144686 52.14189987 7.75 51.1875 C2.85081427 49.14090467 -0.48355103 46.76231204 -3 42 C-4.04898127 37.77768547 -4.36870098 33.81470012 -3.5 29.5390625 C-2.78503468 25.90837922 -3.03081843 22.40229098 -3.16015625 18.71875 C-2.98530021 15.7504621 -2.1164378 13.7344004 -1 11 C-0.79724005 8.62865605 -0.79724005 8.62865605 -0.9375 6.3125 C-1.09672387 2.19344774 -1.09672387 2.19344774 0 0 Z " fill="#3B7179" transform="translate(22,42)"/>
<path d="M0 0 C0.99 0.33 1.98 0.66 3 1 C2.67 2.32 2.34 3.64 2 5 C3.546875 4.87625 3.546875 4.87625 5.125 4.75 C9.67855028 5.04377744 11.59822636 6.00319941 15 9 C15.875 11.75 15.875 11.75 16 14 C15.01 14.33 14.02 14.66 13 15 C13.3403125 16.3921875 13.3403125 16.3921875 13.6875 17.8125 C14 21 14 21 12.8125 22.9375 C11 24 11 24 8.875 23.75 C7 23 7 23 6 22 C5.92794489 20.31391034 5.91613932 18.62499341 5.9375 16.9375 C5.94652344 16.01839844 5.95554687 15.09929688 5.96484375 14.15234375 C5.97644531 13.44207031 5.98804687 12.73179688 6 12 C4.68 11.67 3.36 11.34 2 11 C2.02094727 11.64549805 2.04189453 12.29099609 2.06347656 12.95605469 C2.14674205 15.88721068 2.19869206 18.81811777 2.25 21.75 C2.30027344 23.27367187 2.30027344 23.27367187 2.3515625 24.828125 C2.45002176 32.31102864 2.45002176 32.31102864 0.234375 35.703125 C-2 37 -2 37 -6 37 C-5.34 26.11 -4.68 15.22 -4 4 C-2.35 4.33 -0.7 4.66 1 5 C0.67 3.35 0.34 1.7 0 0 Z " fill="#29585E" transform="translate(64,22)"/>
<path d="M0 0 C4.70588235 0.70588235 4.70588235 0.70588235 6 2 C6.43099624 5.79276692 6.31545814 7.52137386 4.1875 10.75 C2 13 2 13 -1 15 C-1.72382467 17.05925139 -1.72382467 17.05925139 -2 19 C-1.34 19 -0.68 19 0 19 C0 19.66 0 20.32 0 21 C5.02847985 22.09076394 5.02847985 22.09076394 9.875 20.75 C12.26175558 19.10021499 12.26175558 19.10021499 13 16 C14.65 16.33 16.3 16.66 18 17 C18.33 17.99 18.66 18.98 19 20 C19.66 20 20.32 20 21 20 C21 21.32 21 22.64 21 24 C20.195625 24.12375 20.195625 24.12375 19.375 24.25 C16.79583744 24.91108813 16.79583744 24.91108813 14.375 27.0625 C9.8146299 29.68049024 6.14616951 29.81167226 1 29 C-3.2367638 27.07419827 -4.65212341 25.6172004 -6.9375 21.5625 C-7.98805259 18.04005895 -8.20510855 16.41447421 -7 13 C-6.67 12.67 -6.34 12.34 -6 12 C-6.66 11.34 -7.32 10.68 -8 10 C-6.02 10 -4.04 10 -2 10 C-1.93941406 9.36191406 -1.87882812 8.72382812 -1.81640625 8.06640625 C-1.73261719 7.24011719 -1.64882813 6.41382812 -1.5625 5.5625 C-1.48128906 4.73878906 -1.40007813 3.91507812 -1.31640625 3.06640625 C-1 1 -1 1 0 0 Z " fill="#1E545D" transform="translate(45,79)"/>
<path d="M0 0 C4.55737263 0.43820891 7.57653445 0.85041169 11 4 C10.74609375 5.85546875 10.74609375 5.85546875 10 8 C8.22265625 9.30078125 8.22265625 9.30078125 6.0625 10.3125 C5.35222656 10.65925781 4.64195313 11.00601562 3.91015625 11.36328125 C3.27980469 11.57339844 2.64945313 11.78351562 2 12 C1.34 11.67 0.68 11.34 0 11 C0 10.01 0 9.02 0 8 C-11.91882589 11.1758627 -21.02620165 15.03303145 -29.11328125 24.55859375 C-31 26 -31 26 -33.73046875 25.72265625 C-34.85388672 25.36494141 -34.85388672 25.36494141 -36 25 C-34.60506348 20.56156561 -32.48101799 18.0565036 -29 15 C-28.01 14.67 -27.02 14.34 -26 14 C-26 13.34 -26 12.68 -26 12 C-17.97953438 7.12140969 -9.59042281 3 0 3 C0 2.01 0 1.02 0 0 Z " fill="#DDAF64" transform="translate(58,2)"/>
<path d="M0 0 C2.13964844 0.40332031 2.13964844 0.40332031 4 1 C4.03867188 2.77117187 4.03867188 2.77117187 4.078125 4.578125 C4.13441397 6.13545323 4.19176114 7.69274347 4.25 9.25 C4.26417969 10.02730469 4.27835938 10.80460937 4.29296875 11.60546875 C4.45261234 15.34112886 4.60707996 17.43474661 6.78125 20.5625 C9.35441568 22.22962142 10.29015405 22.34196919 13.25 21.75 C14.4875 21.5025 15.725 21.255 17 21 C17 20.34 17 19.68 17 19 C17.66 19 18.32 19 19 19 C19 19.66 19 20.32 19 21 C19.66 21 20.32 21 21 21 C21 21.66 21 22.32 21 23 C21.66 23 22.32 23 23 23 C23 23.66 23 24.32 23 25 C17.3973656 28.8974848 12.82120241 30.14434646 6 29 C2.89389572 27.6598663 0.55156185 26.1031237 -1 23 C0.65 23.33 2.3 23.66 4 24 C4 22.68 4 21.36 4 20 C3.34 20 2.68 20 2 20 C1.34 19.34 0.68 18.68 0 18 C-1.31747324 17.30251417 -2.64914193 16.63040043 -4 16 C-4.10841951 14.08458862 -4.18578079 12.16740227 -4.25 10.25 C-4.29640625 9.18265625 -4.3428125 8.1153125 -4.390625 7.015625 C-4 4 -4 4 -2.234375 1.546875 C-1.49703125 1.03640625 -0.7596875 0.5259375 0 0 Z " fill="#3C6C76" transform="translate(62,79)"/>
<path d="M0 0 C1.32 0.66 2.64 1.32 4 2 C3.96519531 2.61746094 3.93039063 3.23492187 3.89453125 3.87109375 C3.74698918 8.48705287 3.87842527 12.22983501 5.5625 16.5625 C7.40144174 21.37468398 6.87826946 24.96991125 6 30 C4.68 29.67 3.36 29.34 2 29 C2.33 28.01 2.66 27.02 3 26 C-0.72614153 27.11854586 -0.72614153 27.11854586 -3 30 C-4.98 30 -6.96 30 -9 30 C-8.401875 29.7525 -7.80375 29.505 -7.1875 29.25 C-4.56539296 27.75165312 -3.49315875 26.63080352 -2 24 C-1.27518916 20.34725531 -1.27518916 20.34725531 -1 17 C-1.66 17 -2.32 17 -3 17 C-3 16.34 -3 15.68 -3 15 C-3.66 15 -4.32 15 -5 15 C-4.33333333 11 -3.66666667 7 -3 3 C-2.34 3 -1.68 3 -1 3 C-0.67 2.01 -0.34 1.02 0 0 Z " fill="#2C6976" transform="translate(99,42)"/>
<path d="M0 0 C1.32 0.66 2.64 1.32 4 2 C4 4.97 4 7.94 4 11 C2.68 11.33 1.36 11.66 0 12 C-0.33 17.94 -0.66 23.88 -1 30 C-2.65 30 -4.3 30 -6 30 C-7.67691362 28.32308638 -7.17155127 26.29661712 -7.1875 24 C-7.15298188 18.71872697 -6.33724345 14.09824064 -5 9 C-5.66 9 -6.32 9 -7 9 C-7 7.68 -7 6.36 -7 5 C-5.46875 3.515625 -5.46875 3.515625 -3.5 2.25 C-2.8503125 1.82203125 -2.200625 1.3940625 -1.53125 0.953125 C-1.0259375 0.63859375 -0.520625 0.3240625 0 0 Z " fill="#F0B048" transform="translate(19,29)"/>
<path d="M0 0 C1.33333333 1.66666667 2.66666667 3.33333333 4 5 C7.11662908 6.80979141 7.11662908 6.80979141 10 8 C10 9.32 10 10.64 10 12 C8 13.25 8 13.25 5 14 C2.00220147 13.14594268 -0.50083724 11.85892781 -3 10 C-4.5 7.25 -4.5 7.25 -5 5 C-10.4844267 4.25669086 -10.4844267 4.25669086 -16 4 C-16 3.34 -16 2.68 -16 2 C-15.34 1.67 -14.68 1.34 -14 1 C-14 0.01 -14 -0.98 -14 -2 C-8.24673918 -3.09113567 -5.05275349 -3.4450592 0 0 Z " fill="#47737C" transform="translate(82,17)"/>
<path d="M0 0 C0.33 1.32 0.66 2.64 1 4 C1.99 4 2.98 4 4 4 C4 3.01 4 2.02 4 1 C5.32 0.67 6.64 0.34 8 0 C8.33 2.31 8.66 4.62 9 7 C8.34 7 7.68 7 7 7 C6.814375 8.299375 6.62875 9.59875 6.4375 10.9375 C6.33308594 11.66839844 6.22867187 12.39929688 6.12109375 13.15234375 C6.08113281 13.76207031 6.04117187 14.37179688 6 15 C6.33 15.33 6.66 15.66 7 16 C7.04063832 17.66617115 7.042721 19.33388095 7 21 C6.34 21 5.68 21 5 21 C4.34 22.98 3.68 24.96 3 27 C2.34 27 1.68 27 1 27 C-0.38232443 28.62626404 -1.71937515 30.2925002 -3 32 C-3.25049122 24.61050897 -3.25049122 24.61050897 -2.03515625 21.6484375 C-0.79809519 18.48342845 -0.5479197 15.69714061 -0.3125 12.3125 C-0.22613281 11.17425781 -0.13976562 10.03601563 -0.05078125 8.86328125 C0.22005847 6.05428049 0.22005847 6.05428049 -1 4 C-0.5625 1.875 -0.5625 1.875 0 0 Z " fill="#16535E" transform="translate(23,36)"/>
<path d="M0 0 C0.99 0.33 1.98 0.66 3 1 C2.67 2.32 2.34 3.64 2 5 C4.97 5.495 4.97 5.495 8 6 C7.67 6.66 7.34 7.32 7 8 C6.01 7.67 5.02 7.34 4 7 C4 7.66 4 8.32 4 9 C3.514104 9.42788818 3.02820801 9.85577637 2.52758789 10.29663086 C0.43568174 12.62925499 0.60319482 14.15399853 0.55859375 17.25390625 C0.53216797 18.27291016 0.50574219 19.29191406 0.47851562 20.34179688 C0.46498047 21.40462891 0.45144531 22.46746094 0.4375 23.5625 C0.40314838 25.66812697 0.36059206 27.77364115 0.30859375 29.87890625 C0.29010376 31.27991577 0.29010376 31.27991577 0.27124023 32.70922852 C0 35 0 35 -2 37 C-3.32 37 -4.64 37 -6 37 C-5.34 26.11 -4.68 15.22 -4 4 C-2.35 4.33 -0.7 4.66 1 5 C0.67 3.35 0.34 1.7 0 0 Z " fill="#13515B" transform="translate(64,22)"/>
<path d="M0 0 C2 0.875 2 0.875 4 2 C7.06890187 3.53445094 9.70094266 2.54984289 13 2 C12.4740625 3.36125 12.4740625 3.36125 11.9375 4.75 C11.01565997 7.9457121 10.92564771 8.9918136 12 12 C12 12.66 12 13.32 12 14 C11.01 14.495 11.01 14.495 10 15 C10 15.99 10 16.98 10 18 C8.02 17.67 6.04 17.34 4 17 C3.67 15.02 3.34 13.04 3 11 C2.01 11.33 1.02 11.66 0 12 C-0.103125 11.360625 -0.20625 10.72125 -0.3125 10.0625 C-0.539375 9.381875 -0.76625 8.70125 -1 8 C-1.99 7.67 -2.98 7.34 -4 7 C-3.39816251 4.97954558 -2.72693904 2.97888961 -2 1 C-1.34 0.67 -0.68 0.34 0 0 Z " fill="#F8A830" transform="translate(49,62)"/>
<path d="M0 0 C2.97 0.495 2.97 0.495 6 1 C6.17835515 5.54805635 5.99785435 8.8794254 4 13 C1.69 13.33 -0.62 13.66 -3 14 C-3 14.66 -3 15.32 -3 16 C-1.68 16.33 -0.36 16.66 1 17 C1.6875 20.3125 1.6875 20.3125 2 24 C0.5625 25.9375 0.5625 25.9375 -1 27 C-1.66 26.67 -2.32 26.34 -3 26 C-3 25.34 -3 24.68 -3 24 C-3.66 24 -4.32 24 -5 24 C-4.505 19.545 -4.505 19.545 -4 15 C-5.32 14.67 -6.64 14.34 -8 14 C-7.01 14 -6.02 14 -5 14 C-5.33 13.01 -5.66 12.02 -6 11 C-5.04867187 10.64808594 -5.04867187 10.64808594 -4.078125 10.2890625 C-1.81749261 9.17709092 -1.81749261 9.17709092 -1.171875 6.8359375 C-0.96304688 5.61777344 -0.96304688 5.61777344 -0.75 4.375 C-0.60046875 3.55773437 -0.4509375 2.74046875 -0.296875 1.8984375 C-0.19890625 1.27195312 -0.1009375 0.64546875 0 0 Z " fill="#22555D" transform="translate(86,76)"/>
<path d="M0 0 C0.94875 0.04125 1.8975 0.0825 2.875 0.125 C4.24932457 3.94256824 3.55475039 7.19755329 2.875 11.125 C3.865 11.455 4.855 11.785 5.875 12.125 C4.885 13.115 3.895 14.105 2.875 15.125 C2.545 14.465 2.215 13.805 1.875 13.125 C1.38 13.29 0.885 13.455 0.375 13.625 C-3.15944089 14.33188818 -6.52190701 14.18505155 -10.125 14.125 C-10.455 12.475 -10.785 10.825 -11.125 9.125 C-10.465 8.795 -9.805 8.465 -9.125 8.125 C-8.135 8.455 -7.145 8.785 -6.125 9.125 C-5.939375 7.454375 -5.939375 7.454375 -5.75 5.75 C-4.97599959 1.26079763 -4.63187427 0.18527497 0 0 Z " fill="#256357" transform="translate(45.125,34.875)"/>
<path d="M0 0 C4.70588235 0.70588235 4.70588235 0.70588235 6 2 C6.43099624 5.79276692 6.31545814 7.52137386 4.1875 10.75 C2 13 2 13 -1 15 C-2.00168531 16.94832935 -2.00168531 16.94832935 -2.6875 19.125 C-2.93886719 19.84945312 -3.19023438 20.57390625 -3.44921875 21.3203125 C-3.63097656 21.87460938 -3.81273437 22.42890625 -4 23 C-4.66 23 -5.32 23 -6 23 C-7.82941851 19.23355012 -8.23162684 17.03077875 -7 13 C-6.67 12.67 -6.34 12.34 -6 12 C-6.66 11.34 -7.32 10.68 -8 10 C-6.02 10 -4.04 10 -2 10 C-1.93941406 9.36191406 -1.87882812 8.72382812 -1.81640625 8.06640625 C-1.73261719 7.24011719 -1.64882813 6.41382812 -1.5625 5.5625 C-1.48128906 4.73878906 -1.40007813 3.91507812 -1.31640625 3.06640625 C-1 1 -1 1 0 0 Z " fill="#265761" transform="translate(45,79)"/>
<path d="M0 0 C0.3403125 0.8971875 0.3403125 0.8971875 0.6875 1.8125 C2.33307014 4.5551169 4.27035797 5.41968093 7 7 C7 7.66 7 8.32 7 9 C7.66 9 8.32 9 9 9 C9.042721 10.66611905 9.04063832 12.33382885 9 14 C8 15 8 15 5.25 15.375 C1.00764168 14.88549712 -0.29560351 13.18164293 -3 10 C-3.99 10.99 -4.98 11.98 -6 13 C-6 11.35 -6 9.7 -6 8 C-6.66 8 -7.32 8 -8 8 C-8 7.34 -8 6.68 -8 6 C-8.66 5.67 -9.32 5.34 -10 5 C-6.535 4.505 -6.535 4.505 -3 4 C-2.67 3.01 -2.34 2.02 -2 1 C-1.34 0.67 -0.68 0.34 0 0 Z " fill="#E1AB58" transform="translate(93,85)"/>
<path d="M0 0 C0.8971875 0.309375 0.8971875 0.309375 1.8125 0.625 C1.8125 1.285 1.8125 1.945 1.8125 2.625 C2.43125 2.439375 3.05 2.25375 3.6875 2.0625 C5.8125 1.625 5.8125 1.625 7.8125 2.625 C7.8125 4.605 7.8125 6.585 7.8125 8.625 C7.4825 7.635 7.1525 6.645 6.8125 5.625 C4.3375 5.13 4.3375 5.13 1.8125 4.625 C1.4825 5.945 1.1525 7.265 0.8125 8.625 C0.8125 7.965 0.8125 7.305 0.8125 6.625 C-2.67349332 7.08413678 -2.67349332 7.08413678 -6.1875 8.625 C-7.72836322 12.13900668 -7.72836322 12.13900668 -8.1875 15.625 C-9.8375 15.295 -11.4875 14.965 -13.1875 14.625 C-13.5175 12.975 -13.8475 11.325 -14.1875 9.625 C-13.1975 9.295 -12.2075 8.965 -11.1875 8.625 C-10.16995132 6.7596755 -10.16995132 6.7596755 -9.5 4.5625 C-9.24863281 3.82902344 -8.99726562 3.09554688 -8.73828125 2.33984375 C-8.55652344 1.77394531 -8.37476563 1.20804688 -8.1875 0.625 C-7.1975 0.955 -6.2075 1.285 -5.1875 1.625 C-2.1875 -0.375 -2.1875 -0.375 0 0 Z " fill="#225254" transform="translate(47.1875,28.375)"/>
<path d="M0 0 C1.32 0 2.64 0 4 0 C4 0.99 4 1.98 4 3 C2.96552734 3.49306641 2.96552734 3.49306641 1.91015625 3.99609375 C-4.59687614 7.28977681 -9.18279169 10.78976595 -13.9296875 16.33984375 C-16 18 -16 18 -18.7578125 17.75390625 C-19.49773438 17.50511719 -20.23765625 17.25632812 -21 17 C-19.59517903 12.53011509 -17.57235272 10.01665341 -14 7 C-9.86752199 4.85996674 -6.6741792 3.57507462 -2 4 C-2 3.34 -2 2.68 -2 2 C-1.34 2 -0.68 2 0 2 C0 1.34 0 0.68 0 0 Z " fill="#C49B55" transform="translate(43,10)"/>
<path d="M0 0 C0.66 0.66 1.32 1.32 2 2 C1.43181818 7.56818182 1.43181818 7.56818182 0 9 C-5.8410596 9.37086093 -5.8410596 9.37086093 -8 9 C-10 6 -10 6 -9.875 2.9375 C-9 0 -9 0 -7.25 -1.5 C-4.21167621 -2.17518306 -2.71789356 -1.4304703 0 0 Z " fill="#CFA867" transform="translate(66,108)"/>
<path d="M0 0 C0.495 0.70125 0.99 1.4025 1.5 2.125 C2.82991511 4.23688009 2.82991511 4.23688009 5.16796875 4.2578125 C7.45774811 4.25071241 9.71707139 4.1722965 12 4 C11.67 4.66 11.34 5.32 11 6 C9.00116131 6.34022786 7.00109278 6.67329097 5 7 C4.34 7.66 3.68 8.32 3 9 C2.67 8.34 2.34 7.68 2 7 C1.34 7 0.68 7 0 7 C-0.66 8.32 -1.32 9.64 -2 11 C-2.66 8.69 -3.32 6.38 -4 4 C-5.65 4 -7.3 4 -9 4 C-8.67 2.68 -8.34 1.36 -8 0 C-9.65 0 -11.3 0 -13 0 C-8.45652963 -2.75299116 -4.80314588 -1.85092327 0 0 Z " fill="#336671" transform="translate(87,70)"/>
<path d="M0 0 C0.33 0 0.66 0 1 0 C1.86066329 9.67768056 1.86066329 9.67768056 -1.375 13.625 C-4 16 -4 16 -6 16 C-6.33 16.66 -6.66 17.32 -7 18 C-8.5 16.75 -8.5 16.75 -10 15 C-10 13.68 -10 12.36 -10 11 C-9.34 11 -8.68 11 -8 11 C-7.34 8.69 -6.68 6.38 -6 4 C-5.67 4.66 -5.34 5.32 -5 6 C-4.01 6 -3.02 6 -2 6 C-1.67 6.66 -1.34 7.32 -1 8 C-0.67 5.36 -0.34 2.72 0 0 Z " fill="#3B6D67" transform="translate(104,74)"/>
<path d="M0 0 C1.65 0.33 3.3 0.66 5 1 C4.67 3.31 4.34 5.62 4 8 C3.01 8.33 2.02 8.66 1 9 C1 8.34 1 7.68 1 7 C-0.32 6.67 -1.64 6.34 -3 6 C-3 13.26 -3 20.52 -3 28 C-3.66 28.33 -4.32 28.66 -5 29 C-5 21.08 -5 13.16 -5 5 C-3.68 4.67 -2.36 4.34 -1 4 C-1 3.34 -1 2.68 -1 2 C0.32 1.67 1.64 1.34 3 1 C2.01 0.67 1.02 0.34 0 0 Z " fill="#56787B" transform="translate(69,27)"/>
<path d="M0 0 C1.98 0 3.96 0 6 0 C6.33 1.32 6.66 2.64 7 4 C9.31 4 11.62 4 14 4 C13.360625 3.896875 12.72125 3.79375 12.0625 3.6875 C11.381875 3.460625 10.70125 3.23375 10 3 C9.67 2.01 9.34 1.02 9 0 C12.96 0 16.92 0 21 0 C21 0.66 21 1.32 21 2 C20.01 2.66 19.02 3.32 18 4 C15.83382585 7.24926122 15.78664331 7.5985242 16.375 11.1875 C16.58125 12.445625 16.7875 13.70375 17 15 C15.24295525 13.40268659 14.09505208 12.22884576 13.17578125 10.015625 C11.65740807 7.41269956 10.35615285 7.02755047 7.5625 6 C4.01905578 4.56439237 1.87366366 3.4975055 0 0 Z " fill="#3C6F7C" transform="translate(22,87)"/>
<path d="M0 0 C0.66 0.33 1.32 0.66 2 1 C1.34 1.66 0.68 2.32 0 3 C0.01747927 5.75589777 0.13863271 8.38786676 0.375 11.125 C0.43171875 11.87910156 0.4884375 12.63320313 0.546875 13.41015625 C0.6884465 15.27418096 0.84299959 17.13721137 1 19 C0.01 18.67 -0.98 18.34 -2 18 C-2.33 16.35 -2.66 14.7 -3 13 C-3.99 13 -4.98 13 -6 13 C-6 13.99 -6 14.98 -6 16 C-6.66 16 -7.32 16 -8 16 C-7.15338412 8.61400627 -5.78293067 4.7772036 0 0 Z " fill="#43787C" transform="translate(33,24)"/>
<path d="M0 0 C0.8353125 0.556875 0.8353125 0.556875 1.6875 1.125 C1.6875 2.115 1.6875 3.105 1.6875 4.125 C0.0375 4.785 -1.6125 5.445 -3.3125 6.125 C-3.3125 6.785 -3.3125 7.445 -3.3125 8.125 C-3.9725 8.125 -4.6325 8.125 -5.3125 8.125 C-5.3125 9.115 -5.3125 10.105 -5.3125 11.125 C-7.2925 11.455 -9.2725 11.785 -11.3125 12.125 C-10.77399601 10.3259755 -10.20574145 8.53583736 -9.625 6.75 C-9.15513672 5.25339844 -9.15513672 5.25339844 -8.67578125 3.7265625 C-7.3125 1.125 -7.3125 1.125 -4.8125 -0.28125 C-2.3125 -0.875 -2.3125 -0.875 0 0 Z " fill="#296169" transform="translate(50.3125,15.875)"/>
<path d="M0 0 C1.32 0.66 2.64 1.32 4 2 C3.98839844 2.66386719 3.97679688 3.32773437 3.96484375 4.01171875 C3.88106591 10.56306787 3.88106591 10.56306787 5 17 C4.34 16.67 3.68 16.34 3 16 C2.3671875 13.71484375 2.3671875 13.71484375 1.875 10.9375 C1.70742187 10.01839844 1.53984375 9.09929688 1.3671875 8.15234375 C1.24601562 7.44207031 1.12484375 6.73179688 1 6 C0.01 6 -0.98 6 -2 6 C-1.67 9.63 -1.34 13.26 -1 17 C-1.66 17 -2.32 17 -3 17 C-3 16.34 -3 15.68 -3 15 C-3.66 15 -4.32 15 -5 15 C-4.33333333 11 -3.66666667 7 -3 3 C-2.34 3 -1.68 3 -1 3 C-0.67 2.01 -0.34 1.02 0 0 Z " fill="#456266" transform="translate(99,42)"/>
<path d="M0 0 C2 2 2 2 2.1953125 5.2578125 C2.16050781 7.17207031 2.16050781 7.17207031 2.125 9.125 C2.10695313 10.40632813 2.08890625 11.68765625 2.0703125 13.0078125 C2.04710937 13.99523438 2.02390625 14.98265625 2 16 C0.35 15.67 -1.3 15.34 -3 15 C-3.02705729 13.22925083 -3.04642195 11.45838289 -3.0625 9.6875 C-3.07410156 8.70136719 -3.08570313 7.71523438 -3.09765625 6.69921875 C-3 4 -3 4 -2 1 C-1.34 0.67 -0.68 0.34 0 0 Z " fill="#E9B664" transform="translate(15,43)"/>
<path d="M0 0 C2 0 2 0 4.1875 2.0625 C5.12618482 3.04053089 6.0635239 4.01985403 7 5 C8.26819949 6.27346173 9.53909153 7.54424703 10.8125 8.8125 C11.875 9.875 12.9375 10.9375 14 12 C13.34 12.66 12.68 13.32 12 14 C10.66070495 12.71451591 9.32871357 11.42141845 8 10.125 C7.2575 9.40570313 6.515 8.68640625 5.75 7.9453125 C4 6 4 6 4 4 C2.02 4.33 0.04 4.66 -2 5 C-2.66 6.98 -3.32 8.96 -4 11 C-3.01 11.33 -2.02 11.66 -1 12 C-1 12.99 -1 13.98 -1 15 C-1.66 15 -2.32 15 -3 15 C-3 14.34 -3 13.68 -3 13 C-3.66 13 -4.32 13 -5 13 C-5.75 10.8125 -5.75 10.8125 -6 8 C-4.1875 5.1875 -4.1875 5.1875 -2 3 C-1.34 3 -0.68 3 0 3 C0 2.01 0 1.02 0 0 Z " fill="#DCAC63" transform="translate(42,52)"/>
<path d="M0 0 C0.66 3.63 1.32 7.26 2 11 C2.66 11 3.32 11 4 11 C3.67 12.65 3.34 14.3 3 16 C1 15.33333333 -1 14.66666667 -3 14 C-4.00496852 10.98509443 -4.10335303 8.95818308 -4.0625 5.8125 C-4.05347656 4.91144531 -4.04445313 4.01039062 -4.03515625 3.08203125 C-4.02355469 2.39496094 -4.01195313 1.70789062 -4 1 C-1 0 -1 0 0 0 Z " fill="#0F5A69" transform="translate(101,47)"/>
<path d="M0 0 C1.98 0 3.96 0 6 0 C6 0.66 6 1.32 6 2 C5.34 2 4.68 2 4 2 C4.20625 2.78375 4.4125 3.5675 4.625 4.375 C4.74875 5.24125 4.8725 6.1075 5 7 C3 9 3 9 0.0625 9.9375 C-2.85839516 10.95087179 -4.08604685 11.66072393 -6 14 C-6.33 13.01 -6.66 12.02 -7 11 C-7.66 11 -8.32 11 -9 11 C-9 10.34 -9 9.68 -9 9 C-10.98 9 -12.96 9 -15 9 C-15 8.67 -15 8.34 -15 8 C-13.18818595 7.80598367 -11.37551468 7.61995625 -9.5625 7.4375 C-8.04849609 7.28087891 -8.04849609 7.28087891 -6.50390625 7.12109375 C-5.67761719 7.08113281 -4.85132813 7.04117188 -4 7 C-3.67 7.33 -3.34 7.66 -3 8 C-1.33382885 8.04063832 0.33388095 8.042721 2 8 C1.47731534 5.23723823 0.89130413 2.6739124 0 0 Z " fill="#4D7079" transform="translate(51,41)"/>
<path d="M0 0 C0.33 0.99 0.66 1.98 1 3 C1.66 3.165 2.32 3.33 3 3.5 C3.66 3.665 4.32 3.83 5 4 C5.33 4.99 5.66 5.98 6 7 C0.72 7 -4.56 7 -10 7 C-10 6.34 -10 5.68 -10 5 C-9.34 4.67 -8.68 4.34 -8 4 C-8 3.01 -8 2.02 -8 1 C-5.36 0.67 -2.72 0.34 0 0 Z " fill="#15535E" transform="translate(76,14)"/>
<path d="M0 0 C0.99 0 1.98 0 3 0 C3 0.66 3 1.32 3 2 C3.639375 2.28875 4.27875 2.5775 4.9375 2.875 C7 4 7 4 8 6 C7.34 6 6.68 6 6 6 C6 6.66 6 7.32 6 8 C8.64 8.33 11.28 8.66 14 9 C14 9.33 14 9.66 14 10 C4.33012448 10.68797533 4.33012448 10.68797533 0.375 8.1875 C-0.40875 7.465625 -1.1925 6.74375 -2 6 C-2 5.01 -2 4.02 -2 3 C-1.34 2.67 -0.68 2.34 0 2 C0 1.34 0 0.68 0 0 Z " fill="#467782" transform="translate(42,98)"/>
<path d="M0 0 C-1 1 -1 1 -3.5625 1.0625 C-4.7690625 1.0315625 -4.7690625 1.0315625 -6 1 C-6 1.99 -6 2.98 -6 4 C-5.34 4.33 -4.68 4.66 -4 5 C-5.98 5.33 -7.96 5.66 -10 6 C-10 5.34 -10 4.68 -10 4 C-11.32 4 -12.64 4 -14 4 C-14 4.66 -14 5.32 -14 6 C-14.66 6 -15.32 6 -16 6 C-16 6.66 -16 7.32 -16 8 C-20.455 8.495 -20.455 8.495 -25 9 C-20.10987144 4.10987144 -6.99561165 -3.49780582 0 0 Z " fill="#EBB865" transform="translate(57,6)"/>
<path d="M0 0 C0.66 0 1.32 0 2 0 C2 0.99 2 1.98 2 3 C1.34 3 0.68 3 0 3 C-0.66 4.32 -1.32 5.64 -2 7 C-2.99 7 -3.98 7 -5 7 C-5.268125 7.598125 -5.53625 8.19625 -5.8125 8.8125 C-6.99917406 10.99847854 -8.09599113 12.41332594 -10 14 C-10.66 14 -11.32 14 -12 14 C-12 14.66 -12 15.32 -12 16 C-13.42578125 17.3671875 -13.42578125 17.3671875 -15.3125 18.875 C-17.97623289 21.06613512 -19.96130525 23.21020719 -22 26 C-22.66 26 -23.32 26 -24 26 C-24 25.34 -24 24.68 -24 24 C-23.34 24 -22.68 24 -22 24 C-21.773125 23.443125 -21.54625 22.88625 -21.3125 22.3125 C-19.62449964 19.33840412 -17.53323483 17.27991135 -15 15 C-14.34 15 -13.68 15 -13 15 C-13 14.34 -13 13.68 -13 13 C-12.34 13 -11.68 13 -11 13 C-11 12.34 -11 11.68 -11 11 C-10.34 11 -9.68 11 -9 11 C-9 10.34 -9 9.68 -9 9 C-8.34 9 -7.68 9 -7 9 C-6.731875 8.360625 -6.46375 7.72125 -6.1875 7.0625 C-5 5 -5 5 -2 4 C-2 3.34 -2 2.68 -2 2 C-1.34 2 -0.68 2 0 2 C0 1.34 0 0.68 0 0 Z " fill="#E0BE82" transform="translate(92,29)"/>
<path d="M0 0 C1.9375 0.6875 1.9375 0.6875 4 2 C4.75 4.625 4.75 4.625 5 7 C3.25 8.5625 3.25 8.5625 1 10 C-1.35190998 9.72330471 -2.88687074 9.05656463 -5 8 C-4.67 6.68 -4.34 5.36 -4 4 C-3.34 4 -2.68 4 -2 4 C-1.34 2.68 -0.68 1.36 0 0 Z " fill="#2D626A" transform="translate(88,53)"/>
<path d="M0 0 C0.66 0.33 1.32 0.66 2 1 C1.70842276 4.79050406 1.45454034 7.35065665 -0.75 10.5 C-3 12 -3 12 -5.75 11.75 C-6.4925 11.5025 -7.235 11.255 -8 11 C-6.60366572 6.55711819 -4.39598172 4.13475236 -1 1 C-0.67 0.67 -0.34 0.34 0 0 Z " fill="#E2B66A" transform="translate(30,16)"/>
<path d="M0 0 C0.556875 0.474375 1.11375 0.94875 1.6875 1.4375 C4.21005646 3.14193004 6.03936708 3.46860435 9 4 C12 6 12 6 12.6875 8.125 C12.790625 8.74375 12.89375 9.3625 13 10 C7.73628638 10.50130606 5.0909066 9.31168629 1 6 C1 5.34 1 4.68 1 4 C0.34 4 -0.32 4 -1 4 C-0.67 2.68 -0.34 1.36 0 0 Z " fill="#326B72" transform="translate(69,82)"/>
<path d="M0 0 C0.268125 0.639375 0.53625 1.27875 0.8125 1.9375 C1.88667752 4.33131686 1.88667752 4.33131686 5 5 C5.6875 7.0625 5.6875 7.0625 6 9 C7.65 9.33 9.3 9.66 11 10 C11 10.33 11 10.66 11 11 C8.36 11 5.72 11 3 11 C2.6596875 10.0409375 2.6596875 10.0409375 2.3125 9.0625 C1.14749104 6.72806339 1.14749104 6.72806339 -1.625 6.25 C-2.40875 6.1675 -3.1925 6.085 -4 6 C-4 5.01 -4 4.02 -4 3 C-2.68 2.67 -1.36 2.34 0 2 C0 1.34 0 0.68 0 0 Z " fill="#185A68" transform="translate(26,81)"/>
<path d="M0 0 C2.375 -0.125 2.375 -0.125 5 0 C5.66 0.66 6.32 1.32 7 2 C6.79296875 4.09375 6.79296875 4.09375 6.1875 6.5 C5.99542969 7.2940625 5.80335937 8.088125 5.60546875 8.90625 C5 11 5 11 4 13 C3.34 13 2.68 13 2 13 C0.17058149 9.23355012 -0.23162684 7.03077875 1 3 C1.33 2.67 1.66 2.34 2 2 C1.34 1.34 0.68 0.68 0 0 Z " fill="#165362" transform="translate(37,89)"/>
<path d="M0 0 C2 2 2 2 2.1953125 5.0390625 C2.17210937 6.22242188 2.14890625 7.40578125 2.125 8.625 C2.10695313 9.81351563 2.08890625 11.00203125 2.0703125 12.2265625 C2.04710937 13.14179687 2.02390625 14.05703125 2 15 C1.34 14.67 0.68 14.34 0 14 C-0.33 16.31 -0.66 18.62 -1 21 C-0.34 21 0.32 21 1 21 C1 21.66 1 22.32 1 23 C-0.32 23 -1.64 23 -3 23 C-2.69475674 19.35352047 -2.37959487 15.70796652 -2.0625 12.0625 C-1.93198242 10.50112305 -1.93198242 10.50112305 -1.79882812 8.90820312 C-1.71181641 7.91884766 -1.62480469 6.92949219 -1.53515625 5.91015625 C-1.456604 4.99371338 -1.37805176 4.07727051 -1.29711914 3.13305664 C-1 1 -1 1 0 0 Z " fill="#135668" transform="translate(61,36)"/>
<path d="M0 0 C2.90896358 0.77918667 5.32439639 1.6621982 8 3 C4.56887261 5.11146301 1.96894519 5.08444564 -2 5 C-2.99 5.33 -3.98 5.66 -5 6 C-5.66 4.68 -6.32 3.36 -7 2 C-9.31 2.33 -11.62 2.66 -14 3 C-9.54982186 -0.88621547 -5.66477902 -0.53609896 0 0 Z " fill="#3E6E75" transform="translate(57,14)"/>
<path d="M0 0 C-0.33 0.9075 -0.66 1.815 -1 2.75 C-2.19605723 6.07045807 -2.19605723 6.07045807 -2 10 C-3.65 10 -5.3 10 -7 10 C-6.67 8.02 -6.34 6.04 -6 4 C-6.99 4 -7.98 4 -9 4 C-8.67 3.01 -8.34 2.02 -8 1 C-5.07175348 0.02391783 -3.04386724 -0.08226668 0 0 Z " fill="#F0A638" transform="translate(62,64)"/>
<path d="M0 0 C1.134375 0.020625 2.26875 0.04125 3.4375 0.0625 C3.625 2.9375 3.625 2.9375 3.4375 6.0625 C0.4375 8.0625 0.4375 8.0625 -1.75 7.6875 C-2.348125 7.48125 -2.94625 7.275 -3.5625 7.0625 C-3.94383299 5.0710944 -4.27575582 3.06970923 -4.5625 1.0625 C-3.5625 0.0625 -3.5625 0.0625 0 0 Z " fill="#D2A548" transform="translate(45.5625,36.9375)"/>
<path d="M0 0 C2.625 0.375 2.625 0.375 5 1 C5.6875 2.8125 5.6875 2.8125 6 5 C4.9375 6.6875 4.9375 6.6875 3 8 C-0.1875 8.6875 -0.1875 8.6875 -3 9 C-2.34 8.34 -1.68 7.68 -1 7 C-0.01 7 0.98 7 2 7 C2 6.01 2 5.02 2 4 C-2.455 4.495 -2.455 4.495 -7 5 C-7.33 4.01 -7.66 3.02 -8 2 C-7.05125 2.04125 -6.1025 2.0825 -5.125 2.125 C-1.89755144 2.34973818 -1.89755144 2.34973818 0 0 Z " fill="#5C7F84" transform="translate(36,68)"/>
<path d="M0 0 C0.99 0.33 1.98 0.66 3 1 C2 3.9375 2 3.9375 0 7 C-3.5911006 8.18955207 -7.25411543 8 -11 8 C-10.67 7.01 -10.34 6.02 -10 5 C-8.02 5 -6.04 5 -4 5 C-3.566875 4.0409375 -3.566875 4.0409375 -3.125 3.0625 C-2 1 -2 1 0 0 Z " fill="#114F5D" transform="translate(100,67)"/>
<path d="M0 0 C0.99 0 1.98 0 3 0 C3.66 1.32 4.32 2.64 5 4 C5.66 4 6.32 4 7 4 C7 5.32 7 6.64 7 8 C5.68 8 4.36 8 3 8 C0.98504093 8.61998741 -1.0187415 9.27954236 -3 10 C-2.690625 9.0925 -2.38125 8.185 -2.0625 7.25 C-1.2727737 4.83436662 -0.57050703 2.47219715 0 0 Z " fill="#F8A72B" transform="translate(78,45)"/>
<path d="M0 0 C0.66 0 1.32 0 2 0 C2.33 1.98 2.66 3.96 3 6 C3.66 6 4.32 6 5 6 C5 5.34 5 4.68 5 4 C5.66 4 6.32 4 7 4 C7.33 5.65 7.66 7.3 8 9 C6.35 10.32 4.7 11.64 3 13 C0.78145293 8.37802694 -0.38281159 5.23175837 0 0 Z " fill="#44747F" transform="translate(18,74)"/>
<path d="M0 0 C1.67542976 0.28604898 3.34385343 0.61781233 5 1 C3.43681592 4.83690637 1.2046685 7.39154889 -2 10 C-4.75 9.9375 -4.75 9.9375 -7 9 C-7.33 8.34 -7.66 7.68 -8 7 C-5.03 7.495 -5.03 7.495 -2 8 C-2.33 6.68 -2.66 5.36 -3 4 C-2.01 4 -1.02 4 0 4 C-0.33 3.01 -0.66 2.02 -1 1 C-0.67 0.67 -0.34 0.34 0 0 Z " fill="#C1934D" transform="translate(61,72)"/>
<path d="M0 0 C0.4375 2.0625 0.4375 2.0625 0 5 C-2.09492908 7.5998607 -4.43453518 9.86518875 -7 12 C-7.33 12 -7.66 12 -8 12 C-7.979375 11.21625 -7.95875 10.4325 -7.9375 9.625 C-7.81315937 7.01885039 -7.81315937 7.01885039 -9 5 C-6.525 5.495 -6.525 5.495 -4 6 C-4 4.35 -4 2.7 -4 1 C-1 0 -1 0 0 0 Z " fill="#BE8D47" transform="translate(106,30)"/>
<path d="M0 0 C1.32 0.66 2.64 1.32 4 2 C4 4.97 4 7.94 4 11 C2.35 11.66 0.7 12.32 -1 13 C-1 12.34 -1 11.68 -1 11 C-0.34 10.67 0.32 10.34 1 10 C1 7.36 1 4.72 1 2 C-0.32 2.99 -1.64 3.98 -3 5 C-3.66 4.67 -4.32 4.34 -5 4 C-3.35 2.68 -1.7 1.36 0 0 Z " fill="#D7B16C" transform="translate(19,29)"/>
<path d="M0 0 C0.66 0 1.32 0 2 0 C2.33 0.66 2.66 1.32 3 2 C4.65 2 6.3 2 8 2 C8 2.66 8 3.32 8 4 C5.69 4.33 3.38 4.66 1 5 C1 5.66 1 6.32 1 7 C2.32 7.33 3.64 7.66 5 8 C5 8.66 5 9.32 5 10 C3.35 9.67 1.7 9.34 0 9 C0 8.01 0 7.02 0 6 C-1.32 5.67 -2.64 5.34 -4 5 C-3.01 5 -2.02 5 -1 5 C-1.33 4.01 -1.66 3.02 -2 2 C-1.34 1.34 -0.68 0.68 0 0 Z " fill="#2A575B" transform="translate(82,85)"/>
<path d="M0 0 C0.94875 0.04125 1.8975 0.0825 2.875 0.125 C2.875 0.785 2.875 1.445 2.875 2.125 C0.895 2.455 -1.085 2.785 -3.125 3.125 C-3.125 5.765 -3.125 8.405 -3.125 11.125 C-4.300625 11.0321875 -4.300625 11.0321875 -5.5 10.9375 C-6.799375 11.0303125 -6.799375 11.0303125 -8.125 11.125 C-8.785 12.115 -9.445 13.105 -10.125 14.125 C-10.455 12.475 -10.785 10.825 -11.125 9.125 C-10.465 8.795 -9.805 8.465 -9.125 8.125 C-8.135 8.455 -7.145 8.785 -6.125 9.125 C-5.939375 7.454375 -5.939375 7.454375 -5.75 5.75 C-4.97599959 1.26079763 -4.63187427 0.18527497 0 0 Z " fill="#748974" transform="translate(45.125,34.875)"/>
<path d="M0 0 C1.67542976 0.28604898 3.34385343 0.61781233 5 1 C4.67 3.64 4.34 6.28 4 9 C3.01 9 2.02 9 1 9 C1 8.34 1 7.68 1 7 C0.34 7 -0.32 7 -1 7 C-1.04254356 5.00045254 -1.04080783 2.99958364 -1 1 C-0.67 0.67 -0.34 0.34 0 0 Z " fill="#17515C" transform="translate(71,35)"/>
<path d="M0 0 C0 0.99 0 1.98 0 3 C-0.66 3 -1.32 3 -2 3 C-2 3.99 -2 4.98 -2 6 C-1.34 6.33 -0.68 6.66 0 7 C-5.94 6.01 -5.94 6.01 -12 5 C-12 4.34 -12 3.68 -12 3 C-10.56445975 2.49440092 -9.1264798 1.9957251 -7.6875 1.5 C-6.88699219 1.2215625 -6.08648437 0.943125 -5.26171875 0.65625 C-3 0 -3 0 0 0 Z " fill="#F4AB42" transform="translate(63,4)"/>
<path d="M0 0 C0.66 0 1.32 0 2 0 C2.33 0.66 2.66 1.32 3 2 C5.97 2 8.94 2 12 2 C11.67 2.66 11.34 3.32 11 4 C9.00116131 4.34022786 7.00109278 4.67329097 5 5 C4.34 5.66 3.68 6.32 3 7 C2.67 6.34 2.34 5.68 2 5 C1.34 5 0.68 5 0 5 C-0.66 6.32 -1.32 7.64 -2 9 C-2 6.69 -2 4.38 -2 2 C-1.34 2 -0.68 2 0 2 C0 1.34 0 0.68 0 0 Z " fill="#4D7780" transform="translate(87,72)"/>
<path d="M0 0 C2.31 0 4.62 0 7 0 C7 0.99 7 1.98 7 3 C7.66 3.33 8.32 3.66 9 4 C5.78548731 5.60725635 2.56387464 5.05748185 -1 5 C-0.67 3.35 -0.34 1.7 0 0 Z " fill="#145160" transform="translate(48,102)"/>
<path d="M0 0 C0.99 0.33 1.98 0.66 3 1 C3 5.36457754 2.63797501 5.85472211 0 9 C-0.66 9.99 -1.32 10.98 -2 12 C-2.84253972 8.62984112 -3.20713029 6.29217351 -2 3 C-1.34 2.01 -0.68 1.02 0 0 Z " fill="#144E56" transform="translate(35,23)"/>
<path d="M0 0 C2.375 0.25 2.375 0.25 5 1 C6.3125 3.0625 6.3125 3.0625 7 5 C5.375 6.625 5.375 6.625 3 8 C-0.25 7.1875 -0.25 7.1875 -3 6 C-3 5.67 -3 5.34 -3 5 C-1.02 5 0.96 5 3 5 C2.34 4.01 1.68 3.02 1 2 C0.67 1.34 0.34 0.68 0 0 Z " fill="#5B787E" transform="translate(86,23)"/>
<path d="M0 0 C1.32 0.33 2.64 0.66 4 1 C3.67 1.66 3.34 2.32 3 3 C1.68 3 0.36 3 -1 3 C-1 3.66 -1 4.32 -1 5 C-0.34 5 0.32 5 1 5 C1 6.65 1 8.3 1 10 C0.67 9.01 0.34 8.02 0 7 C-0.66 7 -1.32 7 -2 7 C-2 7.66 -2 8.32 -2 9 C-2.99 9.33 -3.98 9.66 -5 10 C-4.38545304 6.00544473 -2.29353263 3.25533664 0 0 Z " fill="#0F4856" transform="translate(25,71)"/>
<path d="M0 0 C1.32 0 2.64 0 4 0 C4.33 2.31 4.66 4.62 5 7 C3.35 6.67 1.7 6.34 0 6 C-0.38218767 4.34385343 -0.71395102 2.67542976 -1 1 C-0.67 0.67 -0.34 0.34 0 0 Z " fill="#1A5B63" transform="translate(34,37)"/>
<path d="M0 0 C1.32 0.33 2.64 0.66 4 1 C4.33 2.65 4.66 4.3 5 6 C3.02 6 1.04 6 -1 6 C-1.33 5.34 -1.66 4.68 -2 4 C-1.0625 1.875 -1.0625 1.875 0 0 Z " fill="#F2A93B" transform="translate(59,110)"/>
<path d="M0 0 C0.33 0.66 0.66 1.32 1 2 C1.61875 1.79375 2.2375 1.5875 2.875 1.375 C3.57625 1.25125 4.2775 1.1275 5 1 C7.1385485 3.1385485 7.42655063 4.13275314 8 7 C6.68 7.33 5.36 7.66 4 8 C3.67 7.34 3.34 6.68 3 6 C2.34 6 1.68 6 1 6 C0.67 4.02 0.34 2.04 0 0 Z " fill="#154E56" transform="translate(97,55)"/>
<path d="M0 0 C1.98 0 3.96 0 6 0 C6.33 1.32 6.66 2.64 7 4 C9.31 4.33 11.62 4.66 14 5 C14 6.65 14 8.3 14 10 C12.9790625 9.38125 12.9790625 9.38125 11.9375 8.75 C10.36603582 7.81380857 8.78868601 6.8857272 7.1796875 6.015625 C3.92144563 4.24335955 2.09234768 3.13852152 0 0 Z " fill="#4D7C86" transform="translate(22,87)"/>
<path d="M0 0 C0.66 0.33 1.32 0.66 2 1 C1.52433594 1.82757813 1.52433594 1.82757813 1.0390625 2.671875 C-0.12709975 5.28477989 -0.40045711 7.40579002 -0.625 10.25 C-0.69976562 11.14203125 -0.77453125 12.0340625 -0.8515625 12.953125 C-0.90054688 13.62859375 -0.94953125 14.3040625 -1 15 C-1.66 15 -2.32 15 -3 15 C-3.08107583 13.06318839 -3.13922475 11.1254066 -3.1875 9.1875 C-3.22230469 8.10855469 -3.25710937 7.02960938 -3.29296875 5.91796875 C-3 3 -3 3 -1.48828125 1.11328125 C-0.99714844 0.74589844 -0.50601563 0.37851563 0 0 Z " fill="#749799" transform="translate(61,80)"/>
<path d="M0 0 C0.928125 0.2784375 0.928125 0.2784375 1.875 0.5625 C4.04160178 1.23686176 4.04160178 1.23686176 6 0 C6.33 2.64 6.66 5.28 7 8 C2.25 6.125 2.25 6.125 0 5 C0 3.35 0 1.7 0 0 Z " fill="#1B4851" transform="translate(68,78)"/>
<path d="M0 0 C2 1.3125 2 1.3125 4 3 C4 3.99 4 4.98 4 6 C1.69 6 -0.62 6 -3 6 C-3 4.68 -3 3.36 -3 2 C-2.01 1.34 -1.02 0.68 0 0 Z " fill="#17535D" transform="translate(85,22)"/>
<path d="M0 0 C-0.33 2.31 -0.66 4.62 -1 7 C-1.66 6.67 -2.32 6.34 -3 6 C-3 5.34 -3 4.68 -3 4 C-3.66 4 -4.32 4 -5 4 C-5 3.34 -5 2.68 -5 2 C-6.98 2 -8.96 2 -11 2 C-11 1.67 -11 1.34 -11 1 C-7.26513121 0.4254048 -3.78706732 0 0 0 Z " fill="#38666E" transform="translate(47,48)"/>
<path d="M0 0 C2.475 0.99 2.475 0.99 5 2 C4.67 7.61 4.34 13.22 4 19 C3.67 19 3.34 19 3 19 C2.95101563 18.00097656 2.90203125 17.00195312 2.8515625 15.97265625 C2.77679687 14.68230469 2.70203125 13.39195313 2.625 12.0625 C2.55539063 10.77472656 2.48578125 9.48695312 2.4140625 8.16015625 C2.27742188 7.11730469 2.14078125 6.07445312 2 5 C1.34 4.67 0.68 4.34 0 4 C0 2.68 0 1.36 0 0 Z " fill="#795E32" transform="translate(14,40)"/>
<path d="M0 0 C0.66 0 1.32 0 2 0 C3.38232443 1.62626404 4.71937515 3.2925002 6 5 C4.35 5.66 2.7 6.32 1 7 C1 7.66 1 8.32 1 9 C-2.875 7.25 -2.875 7.25 -4 5 C-1.525 5.495 -1.525 5.495 1 6 C0.67 4.02 0.34 2.04 0 0 Z " fill="#53808A" transform="translate(65,97)"/>
<path d="M0 0 C-0.5859375 6.15234375 -0.5859375 6.15234375 -1 8 C-1.99 8.495 -1.99 8.495 -3 9 C-3 7.35 -3 5.7 -3 4 C-3.66 4 -4.32 4 -5 4 C-5 3.34 -5 2.68 -5 2 C-5.66 1.67 -6.32 1.34 -7 1 C-4.53721199 -0.231394 -2.7204945 -0.07159196 0 0 Z " fill="#928D6A" transform="translate(90,89)"/>
<path d="M0 0 C1.2065625 0.0309375 1.2065625 0.0309375 2.4375 0.0625 C1.89523019 3.85838866 0.23622437 5.53461993 -2.5625 8.0625 C-2.94313221 5.7364143 -3.27519945 3.40194736 -3.5625 1.0625 C-2.5625 0.0625 -2.5625 0.0625 0 0 Z " fill="#134A55" transform="translate(76.5625,69.9375)"/>
<path d="M0 0 C1.9375 0.25 1.9375 0.25 4 1 C4.66 1.99 5.32 2.98 6 4 C6.66 4 7.32 4 8 4 C8.33 5.98 8.66 7.96 9 10 C7.8944811 9.06409496 6.79064547 8.12620142 5.6875 7.1875 C5.07261719 6.66542969 4.45773438 6.14335938 3.82421875 5.60546875 C2.14575321 4.12827531 0.56117966 2.59960869 -1 1 C-0.67 0.67 -0.34 0.34 0 0 Z " fill="#E2A84B" transform="translate(44,69)"/>
<path d="M0 0 C-1 1 -1 1 -3.5625 1.0625 C-4.7690625 1.0315625 -4.7690625 1.0315625 -6 1 C-6 1.99 -6 2.98 -6 4 C-5.34 4.33 -4.68 4.66 -4 5 C-5.98 5.33 -7.96 5.66 -10 6 C-9.34 5.67 -8.68 5.34 -8 5 C-8 4.34 -8 3.68 -8 3 C-9.98 3 -11.96 3 -14 3 C-10.22045416 0.79526493 -4.07756336 -2.03878168 0 0 Z " fill="#EDC684" transform="translate(57,6)"/>
<path d="M0 0 C1.32 0 2.64 0 4 0 C4 0.99 4 1.98 4 3 C-1.29230769 6.07692308 -1.29230769 6.07692308 -4.875 5.6875 C-5.57625 5.460625 -6.2775 5.23375 -7 5 C-7 4.67 -7 4.34 -7 4 C-5.35 4 -3.7 4 -2 4 C-2 3.34 -2 2.68 -2 2 C-1.34 2 -0.68 2 0 2 C0 1.34 0 0.68 0 0 Z " fill="#D1A356" transform="translate(43,10)"/>
<path d="M0 0 C0.33 0 0.66 0 1 0 C1.02698189 1.62490954 1.04638757 3.24994633 1.0625 4.875 C1.07410156 5.77992187 1.08570312 6.68484375 1.09765625 7.6171875 C1 10 1 10 0 12 C-0.66 12 -1.32 12 -2 12 C-2.66 10.35 -3.32 8.7 -4 7 C-4.66 7 -5.32 7 -6 7 C-5.67 6.01 -5.34 5.02 -5 4 C-5 4.66 -5 5.32 -5 6 C-4.01 6 -3.02 6 -2 6 C-1.67 6.66 -1.34 7.32 -1 8 C-0.67 5.36 -0.34 2.72 0 0 Z " fill="#527A84" transform="translate(104,74)"/>
<path d="M0 0 C2 3 2 3 2 5 C1.34 5 0.68 5 0 5 C-1.38232443 6.62626404 -2.71937515 8.2925002 -4 10 C-4 7.36 -4 4.72 -4 2 C-2.68 2 -1.36 2 0 2 C0 1.34 0 0.68 0 0 Z " fill="#154D57" transform="translate(24,58)"/>
<path d="M0 0 C0.8353125 0.556875 0.8353125 0.556875 1.6875 1.125 C1.6875 1.785 1.6875 2.445 1.6875 3.125 C0.3675 3.125 -0.9525 3.125 -2.3125 3.125 C-2.6425 3.785 -2.9725 4.445 -3.3125 5.125 C-4.6325 4.465 -5.9525 3.805 -7.3125 3.125 C-7.3125 2.465 -7.3125 1.805 -7.3125 1.125 C-2.88173077 -1.09038462 -2.88173077 -1.09038462 0 0 Z " fill="#115260" transform="translate(50.3125,15.875)"/>
<path d="M0 0 C0.66 0.33 1.32 0.66 2 1 C2 1.66 2 2.32 2 3 C2.66 3 3.32 3 4 3 C4 4.32 4 5.64 4 7 C1.03 6.505 1.03 6.505 -2 6 C-2 4.33333333 -2 2.66666667 -2 1 C-1.34 0.67 -0.68 0.34 0 0 Z " fill="#0B5868" transform="translate(62,96)"/>
<path d="M0 0 C0.144375 0.61875 0.28875 1.2375 0.4375 1.875 C0.93152225 4.03258322 0.93152225 4.03258322 2 6 C1.67 6.99 1.34 7.98 1 9 C-0.32 9 -1.64 9 -3 9 C-3 8.34 -3 7.68 -3 7 C-3.99 6.67 -4.98 6.34 -6 6 C-5.195625 5.566875 -4.39125 5.13375 -3.5625 4.6875 C-0.72153646 3.19525998 -0.72153646 3.19525998 0 0 Z " fill="#316E79" transform="translate(58,95)"/>
<path d="M0 0 C0 1.65 0 3.3 0 5 C-2.88575819 4.60196439 -3.82189513 4.20990931 -5.75 1.9375 C-6.1625 1.298125 -6.575 0.65875 -7 0 C-3.86650268 -1.04449911 -3.01031744 -0.93423645 0 0 Z " fill="#F1AA39" transform="translate(99,94)"/>
<path d="M0 0 C3.21043882 1.38188453 5.04936365 2.92421903 7.25 5.625 C8.03117187 6.57246094 8.03117187 6.57246094 8.828125 7.5390625 C9.40820312 8.26222656 9.40820312 8.26222656 10 9 C7 9 7 9 5.17578125 7.5390625 C4.56089844 6.90742187 3.94601563 6.27578125 3.3125 5.625 C2.68988281 4.99851562 2.06726562 4.37203125 1.42578125 3.7265625 C0 2 0 2 0 0 Z " fill="#AD8855" transform="translate(46,56)"/>
<path d="M0 0 C0.99 0.66 1.98 1.32 3 2 C3.1875 4.625 3.1875 4.625 3 7 C2.34 7 1.68 7 1 7 C0.34 8.32 -0.32 9.64 -1 11 C-1.66 10.01 -2.32 9.02 -3 8 C-2.67 7.34 -2.34 6.68 -2 6 C-1.34 6.33 -0.68 6.66 0 7 C0 4.69 0 2.38 0 0 Z " fill="#48666D" transform="translate(27,50)"/>
<path d="M0 0 C2.97 0.495 2.97 0.495 6 1 C4.60667426 4.36720387 3.0210714 5.9859524 0 8 C0 5.36 0 2.72 0 0 Z " fill="#C39246" transform="translate(89,43)"/>
<path d="M0 0 C0.33 0.99 0.66 1.98 1 3 C1.99 3.66 2.98 4.32 4 5 C3.01 5 2.02 5 1 5 C1 7.64 1 10.28 1 13 C-1.16750011 9.74874983 -1.68533358 7.85466368 -2 4 C-1.0625 1.625 -1.0625 1.625 0 0 Z " fill="#15474D" transform="translate(39,29)"/>
<path d="M0 0 C0 0.99 0 1.98 0 3 C-2.64 3 -5.28 3 -8 3 C-8 2.01 -8 1.02 -8 0 C-5.13822943 -1.43088528 -3.06624227 -0.59991697 0 0 Z " fill="#195965" transform="translate(74,104)"/>
<path d="M0 0 C1.98 0.66 3.96 1.32 6 2 C5.34 3.98 4.68 5.96 4 8 C3.34 8 2.68 8 2 8 C0.74335022 5.09399739 0 3.20395416 0 0 Z " fill="#0D4B59" transform="translate(37,94)"/>
<path d="M0 0 C2.375 0.6875 2.375 0.6875 5 2 C6.3125 4.625 6.3125 4.625 7 7 C4.125 7.125 4.125 7.125 1 7 C0.34 6.34 -0.32 5.68 -1 5 C-0.01 5 0.98 5 2 5 C2 4.01 2 3.02 2 2 C1.34 2 0.68 2 0 2 C0 1.34 0 0.68 0 0 Z " fill="#487885" transform="translate(75,85)"/>
<path d="M0 0 C0.66 0.66 1.32 1.32 2 2 C1.625 4.625 1.625 4.625 1 7 C-0.65 6.67 -2.3 6.34 -4 6 C-4 5.01 -4 4.02 -4 3 C-2.68 2.67 -1.36 2.34 0 2 C0 1.34 0 0.68 0 0 Z " fill="#0F4B61" transform="translate(26,81)"/>
<path d="M0 0 C1.32 0 2.64 0 4 0 C4.625 2.875 4.625 2.875 5 6 C4.34 6.66 3.68 7.32 3 8 C3 7.01 3 6.02 3 5 C2.01 4.67 1.02 4.34 0 4 C0 2.68 0 1.36 0 0 Z " fill="#0D464E" transform="translate(23,44)"/>
<path d="M0 0 C-1 3 -1 3 -3 5 C-6.125 5.125 -6.125 5.125 -9 5 C-6.41680366 1.12520549 -4.65792984 0 0 0 Z " fill="#1D6066" transform="translate(48,28)"/>
<path d="M0 0 C2.20700414 0.96556431 3.42932829 2.06872753 5 3.875 C1.18510326 5.34226798 -1.29011622 4.30836419 -5 2.875 C-2.57142857 -0.16071429 -2.57142857 -0.16071429 0 0 Z " fill="#DBA85D" transform="translate(99,25.125)"/>
<path d="M0 0 C0.66 0.66 1.32 1.32 2 2 C1.96712417 4.72869407 1.43602229 7.2966618 1 10 C-0.32 9.67 -1.64 9.34 -3 9 C-2.835 8.05125 -2.67 7.1025 -2.5 6.125 C-1.9473365 3.19831099 -1.9473365 3.19831099 -2 1 C-1.34 0.67 -0.68 0.34 0 0 Z " fill="#355C62" transform="translate(104,62)"/>
<path d="M0 0 C0.33 1.32 0.66 2.64 1 4 C1.66 4 2.32 4 3 4 C2.25 5.9375 2.25 5.9375 1 8 C-1.125 8.75 -1.125 8.75 -3 9 C-3.66 7.68 -4.32 6.36 -5 5 C-4.34 5 -3.68 5 -3 5 C-3 5.66 -3 6.32 -3 7 C-2.01 7 -1.02 7 0 7 C0 4.69 0 2.38 0 0 Z " fill="#5A7576" transform="translate(75,37)"/>
<path d="M0 0 C1.65 0.33 3.3 0.66 5 1 C5.33 1.99 5.66 2.98 6 4 C3.69 4 1.38 4 -1 4 C-0.67 2.68 -0.34 1.36 0 0 Z " fill="#135562" transform="translate(37,45)"/>
<path d="M0 0 C1.65 0 3.3 0 5 0 C5 1.98 5 3.96 5 6 C3.68 5.67 2.36 5.34 1 5 C0.67 3.35 0.34 1.7 0 0 Z " fill="#135458" transform="translate(48,43)"/>
<path d="M0 0 C0.33 0 0.66 0 1 0 C1 2.31 1 4.62 1 7 C0.01 7.495 0.01 7.495 -1 8 C-1 7.01 -1 6.02 -1 5 C-1.99 5 -2.98 5 -4 5 C-4 4.01 -4 3.02 -4 2 C-2.68 2 -1.36 2 0 2 C0 1.34 0 0.68 0 0 Z " fill="#17505C" transform="translate(103,75)"/>
<path d="M0 0 C1.98 0 3.96 0 6 0 C6 0.99 6 1.98 6 3 C4.02 3.66 2.04 4.32 0 5 C0 3.35 0 1.7 0 0 Z " fill="#125261" transform="translate(32,72)"/>
<path d="M0 0 C-0.99 0.66 -1.98 1.32 -3 2 C-3 2.99 -3 3.98 -3 5 C-3.99 4.67 -4.98 4.34 -6 4 C-5.67 3.01 -5.34 2.02 -5 1 C-6.65 1 -8.3 1 -10 1 C-6.42181037 -1.33958553 -4.07775191 -0.9267618 0 0 Z " fill="#57858B" transform="translate(84,69)"/>
<path d="M0 0 C0.763125 0.20625 1.52625 0.4125 2.3125 0.625 C1.3225 1.12 1.3225 1.12 0.3125 1.625 C-0.82100534 3.64169827 -0.82100534 3.64169827 -1.6875 5.625 C-2.0175 4.635 -2.3475 3.645 -2.6875 2.625 C-3.6775 2.295 -4.6675 1.965 -5.6875 1.625 C-2.6875 -0.375 -2.6875 -0.375 0 0 Z " fill="#2C5964" transform="translate(29.6875,41.375)"/>
<path d="M0 0 C0.33 0 0.66 0 1 0 C1.125 2.875 1.125 2.875 1 6 C0.34 6.66 -0.32 7.32 -1 8 C-1.66 7.34 -2.32 6.68 -3 6 C-3.66 5.67 -4.32 5.34 -5 5 C-4.67 4.01 -4.34 3.02 -4 2 C-3.34 2 -2.68 2 -2 2 C-2 2.66 -2 3.32 -2 4 C-1.34 4 -0.68 4 0 4 C0 2.68 0 1.36 0 0 Z " fill="#0E404C" transform="translate(65,91)"/>
<path d="M0 0 C0.99 0 1.98 0 3 0 C3 2.31 3 4.62 3 7 C2.01 6.67 1.02 6.34 0 6 C0 4.02 0 2.04 0 0 Z " fill="#115563" transform="translate(60,85)"/>
<path d="M0 0 C0.66 0 1.32 0 2 0 C3.625 2 3.625 2 5 4 C2.03 4.66 -0.94 5.32 -4 6 C-3.34 5.01 -2.68 4.02 -2 3 C-1.34 3 -0.68 3 0 3 C0 2.01 0 1.02 0 0 Z " fill="#CFB184" transform="translate(42,52)"/>
<path d="M0 0 C0.33 0 0.66 0 1 0 C1 3.96 1 7.92 1 12 C1.66 12 2.32 12 3 12 C3 12.66 3 13.32 3 14 C1.68 14 0.36 14 -1 14 C-0.67 9.38 -0.34 4.76 0 0 Z " fill="#4B7373" transform="translate(59,45)"/>
<path d="M0 0 C0.66 0 1.32 0 2 0 C2 0.99 2 1.98 2 3 C1.34 3 0.68 3 0 3 C-0.66 4.32 -1.32 5.64 -2 7 C-2.99 6.67 -3.98 6.34 -5 6 C-4.67 5.34 -4.34 4.68 -4 4 C-3.34 4 -2.68 4 -2 4 C-2 3.34 -2 2.68 -2 2 C-1.34 2 -0.68 2 0 2 C0 1.34 0 0.68 0 0 Z " fill="#E1B75E" transform="translate(92,29)"/>
<path d="M0 0 C0.66 0.33 1.32 0.66 2 1 C1.67 1.99 1.34 2.98 1 4 C0.34 4 -0.32 4 -1 4 C-1.33 5.32 -1.66 6.64 -2 8 C-2.66 8 -3.32 8 -4 8 C-3.40072174 4.64404172 -2.15377564 2.62198774 0 0 Z " fill="#486F74" transform="translate(72,70)"/>
<path d="M0 0 C0.66 0 1.32 0 2 0 C2.33 2.64 2.66 5.28 3 8 C2.34 8 1.68 8 1 8 C1 7.34 1 6.68 1 6 C0.34 6 -0.32 6 -1 6 C-0.67 4.02 -0.34 2.04 0 0 Z " fill="#4E7A81" transform="translate(95,51)"/>
<path d="M0 0 C2.475 0.495 2.475 0.495 5 1 C5.33 2.65 5.66 4.3 6 6 C5.01 5.67 4.02 5.34 3 5 C3 4.34 3 3.68 3 3 C2.01 2.67 1.02 2.34 0 2 C0 1.34 0 0.68 0 0 Z " fill="#184B58" transform="translate(82,94)"/>
<path d="M0 0 C0.66 0 1.32 0 2 0 C2.99 1.98 3.98 3.96 5 6 C4.01 6.66 3.02 7.32 2 8 C1.34 7.34 0.68 6.68 0 6 C0.66 6 1.32 6 2 6 C1.34 4.02 0.68 2.04 0 0 Z " fill="#1F545C" transform="translate(98,81)"/>
<path d="M0 0 C0.99 0.33 1.98 0.66 3 1 C3 1.99 3 2.98 3 4 C1.02 4.33 -0.96 4.66 -3 5 C-3.33 4.34 -3.66 3.68 -4 3 C-2.68 2.67 -1.36 2.34 0 2 C0 1.34 0 0.68 0 0 Z " fill="#296778" transform="translate(68,29)"/>
<path d="M0 0 C0.99 0.33 1.98 0.66 3 1 C2.67 2.32 2.34 3.64 2 5 C0.68 5 -0.64 5 -2 5 C-1.34 3.35 -0.68 1.7 0 0 Z " fill="#B5955D" transform="translate(66,5)"/>
<path d="M0 0 C0.66 0.33 1.32 0.66 2 1 C1.67 1.66 1.34 2.32 1 3 C1.66 3 2.32 3 3 3 C3 3.66 3 4.32 3 5 C1.35 5.33 -0.3 5.66 -2 6 C-2 5.01 -2 4.02 -2 3 C-1.34 2.67 -0.68 2.34 0 2 C0 1.34 0 0.68 0 0 Z " fill="#256A77" transform="translate(42,98)"/>
<path d="M0 0 C0.99 0.33 1.98 0.66 3 1 C3 2.65 3 4.3 3 6 C2.01 6 1.02 6 0 6 C0 4.02 0 2.04 0 0 Z " fill="#A4864E" transform="translate(99,93)"/>
<path d="M0 0 C0.99 0.33 1.98 0.66 3 1 C2.67 2.32 2.34 3.64 2 5 C0.68 4.67 -0.64 4.34 -2 4 C-2 3.34 -2 2.68 -2 2 C-1.34 2 -0.68 2 0 2 C0 1.34 0 0.68 0 0 Z " fill="#084E5C" transform="translate(86,83)"/>
<path d="M0 0 C0.66 0 1.32 0 2 0 C2.185625 1.2065625 2.185625 1.2065625 2.375 2.4375 C2.58125 3.283125 2.7875 4.12875 3 5 C3.66 5.33 4.32 5.66 5 6 C2.83125748 5.49396008 1.00032373 5.00016187 -1 4 C-0.67 2.68 -0.34 1.36 0 0 Z " fill="#5F8A8F" transform="translate(84,57)"/>
<path d="M0 0 C0 2.31 0 4.62 0 7 C-0.66 6.34 -1.32 5.68 -2 5 C-2.66 5 -3.32 5 -4 5 C-4 3.68 -4 2.36 -4 1 C-1 0 -1 0 0 0 Z " fill="#10505C" transform="translate(101,47)"/>
<path d="M0 0 C0.66 0 1.32 0 2 0 C2.33 2.64 2.66 5.28 3 8 C1.5 6.625 1.5 6.625 0 5 C0 4.34 0 3.68 0 3 C-0.66 2.67 -1.32 2.34 -2 2 C-1.34 1.34 -0.68 0.68 0 0 Z " fill="#F5B33F" transform="translate(18,31)"/>
<path d="M0 0 C1.32 0 2.64 0 4 0 C4 0.99 4 1.98 4 3 C2.02 3.33 0.04 3.66 -2 4 C-1.34 2.68 -0.68 1.36 0 0 Z " fill="#1E4C58" transform="translate(41,24)"/>
<path d="M0 0 C1.32 0.33 2.64 0.66 4 1 C2.68 2.32 1.36 3.64 0 5 C-0.99 4.01 -1.98 3.02 -3 2 C-2.01 2 -1.02 2 0 2 C0 1.34 0 0.68 0 0 Z " fill="#BE9955" transform="translate(27,22)"/>
</svg>
