<?xml version="1.0" encoding="UTF-8"?>
<svg version="1.1" xmlns="http://www.w3.org/2000/svg" width="314" height="314">
<path d="M0 0 C0.72233826 0.00149048 1.44467651 0.00298096 2.18890381 0.0045166 C13.30000709 0.04565405 23.920624 0.7085324 34.75 3.3125 C36.03003906 3.60253906 37.31007812 3.89257812 38.62890625 4.19140625 C76.03524719 13.36075547 109.57153765 38.17768005 130.20214844 70.59423828 C138.11714826 83.66208731 143.68725712 97.24398037 148 111.875 C148.2465332 112.70104736 148.49306641 113.52709473 148.74707031 114.37817383 C152.30259916 126.97128655 153.13072304 139.61421148 153.0625 152.625 C153.05976578 153.71241989 153.05976578 153.71241989 153.05697632 154.82180786 C153.01132948 165.61631876 152.46676973 175.81638564 149.75 186.3125 C149.57839355 187.02825195 149.40678711 187.74400391 149.22998047 188.48144531 C146.54613625 199.66293034 142.67492162 209.93702707 137.75 220.3125 C137.11771484 221.69695312 137.11771484 221.69695312 136.47265625 223.109375 C120.40628845 257.0813581 87.72983635 284.42424523 52.7421875 297.23828125 C42.94194866 300.56457845 32.96888538 302.73424993 22.75 304.3125 C21.6679126 304.48450928 20.5858252 304.65651855 19.47094727 304.83374023 C13.14992431 305.64704159 6.80106553 305.55631816 0.4375 305.5625 C-0.27864471 305.56350708 -0.99478943 305.56451416 -1.7326355 305.56555176 C-12.84640824 305.55497802 -23.4120769 304.88289039 -34.25 302.3125 C-35.48492187 302.04566406 -36.71984375 301.77882813 -37.9921875 301.50390625 C-75.49581201 292.58391099 -109.1229437 267.43308426 -129.69335938 235.03955078 C-142.72798161 213.52507028 -152.29369254 187.93480751 -152.453125 162.5703125 C-152.45882507 161.84367401 -152.46452515 161.11703552 -152.47039795 160.36837769 C-152.47979519 158.8338158 -152.48636079 157.29923421 -152.49023438 155.76464844 C-152.4998295 153.47812941 -152.53085565 151.19255456 -152.5625 148.90625 C-152.85116594 108.57627186 -135.06382941 71.41374559 -107.1875 42.875 C-78.77603148 14.576758 -39.82943816 -0.20429473 0 0 Z " fill="#F9FAF9" transform="translate(157.25,5.6875)"/>
<path d="M0 0 C0 0.66 0 1.32 0 2 C0.86625 2.433125 0.86625 2.433125 1.75 2.875 C3.83333333 3.91666667 5.91666667 4.95833333 8 6 C8.92232422 5.25943359 8.92232422 5.25943359 9.86328125 4.50390625 C10.67152344 3.86324219 11.47976562 3.22257812 12.3125 2.5625 C13.51326172 1.60537109 13.51326172 1.60537109 14.73828125 0.62890625 C20.32679092 -3.39597895 27.41966324 -2.39381776 34 -2 C40.08974559 -0.89986104 44.06091877 1.10276387 48 6 C48.41121094 6.72058594 48.82242188 7.44117187 49.24609375 8.18359375 C52.76927098 14.26182303 55.71456582 16.28697653 62.51171875 18.1484375 C65.10699781 19.03661778 66.26316689 19.92044731 68 22 C66.70700306 24.88437779 65.34058637 26.87219421 63 29 C62.21625 28.731875 61.4325 28.46375 60.625 28.1875 C57.23093698 26.98549642 57.23093698 26.98549642 54.55078125 26.55078125 C51.76453042 25.96354453 49.51587443 25.34718276 47 24 C45.43300337 21.59414919 44.42735135 19.16334832 43.31640625 16.51953125 C41.00346003 12.09267573 37.58996314 9.79791183 33 8 C28.28570396 7.24086437 23.84334852 6.71325761 19.80078125 9.53515625 C19.20652344 10.01855469 18.61226563 10.50195312 18 11 C17.34 11 16.68 11 16 11 C14.1866078 14.20010388 13.47786026 17.13283843 12.875 20.75 C12.70742187 21.73484375 12.53984375 22.7196875 12.3671875 23.734375 C12.24601562 24.48203125 12.12484375 25.2296875 12 26 C12.99 25.67 13.98 25.34 15 25 C28.18144442 23.67683087 28.18144442 23.67683087 33.5625 27.625 C35.37890625 29.28515625 35.37890625 29.28515625 37 31 C37.52464844 31.51433594 38.04929687 32.02867188 38.58984375 32.55859375 C40.84985895 34.96885927 41.95225968 36.56078904 42.3125 39.875 C42.209375 40.57625 42.10625 41.2775 42 42 C41.195625 42.309375 40.39125 42.61875 39.5625 42.9375 C37.10919595 43.76335345 37.10919595 43.76335345 36 45 C35.85524067 48.8361222 35.82338492 52.32307787 37 56 C35.35 57.32 33.7 58.64 32 60 C29.14590129 59.01582803 28.00720866 58.00969441 26.1875 55.5625 C24.17779227 49.53337681 24.76972977 43.50975128 27.5625 37.8125 C28.036875 37.214375 28.51125 36.61625 29 36 C25.90765472 35.10106242 23.09202643 34.83650766 19.875 34.8125 C19.00617188 34.79832031 18.13734375 34.78414062 17.2421875 34.76953125 C14.79670274 34.78256395 14.79670274 34.78256395 13 37 C12.69782038 38.95025615 12.69782038 38.95025615 12.74462891 41.20263672 C12.73766998 42.07048798 12.73071106 42.93833923 12.72354126 43.83248901 C12.72503677 45.24185226 12.72503677 45.24185226 12.7265625 46.6796875 C12.70627232 48.66016189 12.68542152 50.6406306 12.6640625 52.62109375 C12.64145305 55.75053693 12.62499111 58.87975623 12.61914062 62.00927734 C12.60962935 65.02482827 12.57586502 68.03936354 12.5390625 71.0546875 C12.54410797 71.99021454 12.54915344 72.92574158 12.55435181 73.88961792 C12.4559708 80.37372545 12.4559708 80.37372545 10.09130859 83.62158203 C8 85 8 85 6 85 C5.01 86.98 5.01 86.98 4 89 C3.34 89 2.68 89 2 89 C1.99413376 88.10908157 1.98826752 87.21816315 1.98222351 86.30024719 C1.92428787 77.89870955 1.8522061 69.49743751 1.76428509 61.09615803 C1.71958289 56.77709638 1.68032652 52.45812903 1.65356445 48.13891602 C1.62752984 43.96957836 1.58712656 39.80060359 1.53681374 35.63149071 C1.52014604 34.04195868 1.50863114 32.45236388 1.50238609 30.86275673 C1.49274366 28.63378606 1.46468452 26.40574352 1.43237305 24.17700195 C1.42126999 22.90903275 1.41016693 21.64106354 1.39872742 20.33467102 C0.79156173 15.25677132 -0.98206719 12.84090101 -4.875 9.625 C-10.12749331 6.86407403 -16.40633357 7.64052664 -22 9 C-25.58171346 11.31078288 -27.52356091 13.17966604 -28.8125 17.25 C-29.204375 18.4875 -29.59625 19.725 -30 21 C-30.66 21 -31.32 21 -32 21 C-32.495 22.485 -32.495 22.485 -33 24 C-35.15234375 24.6328125 -35.15234375 24.6328125 -37.9375 25.125 C-44.80610769 26.80399299 -49.48115791 30.63503728 -54 36 C-55.35862973 39.33795324 -55.03316485 42.74618404 -55.0625 46.3125 C-55.3067772 50.12665278 -55.45130669 52.29132052 -57.80859375 55.3359375 C-59.80490632 57.02266149 -61.86182511 58.50235595 -64 60 C-65.40783127 62.81566255 -65.2076814 65.2363707 -65.25 68.375 C-65.27578125 69.51710938 -65.3015625 70.65921875 -65.328125 71.8359375 C-64.9696334 75.29282074 -64.19733424 76.4182757 -62 79 C-61.8125 81.75 -61.8125 81.75 -62 84 C-62.598125 84.165 -63.19625 84.33 -63.8125 84.5 C-67.27056272 86.87124301 -68.12717069 90.07536322 -69 94 C-69.84080729 100.21031917 -70.02723939 105.35926117 -66.3125 110.625 C-62.69641279 114.69732251 -59.93568399 115.75364022 -54.5625 116.4375 C-50.91730419 115.98984437 -50.35057995 115.74484541 -47.8125 113.4375 C-45 111 -45 111 -42.75 111.0625 C-41 112 -41 112 -39 114 C-38.6875 116.4375 -38.6875 116.4375 -39 119 C-40.4375 120.625 -40.4375 120.625 -42 122 C-42.495 123.485 -42.495 123.485 -43 125 C-48.97590597 127.5231603 -55.60279734 127.93083405 -62 127 C-64.9375 124.5625 -64.9375 124.5625 -67 122 C-69.56892097 121.30670643 -69.56892097 121.30670643 -72 121 C-71.27806849 132.04997214 -69.72167842 139.96449292 -61.125 147.68359375 C-54.23443785 152.92576711 -46.38840943 153.01932734 -38 152 C-34.13781335 150.15681254 -30.93956472 147.87912944 -29 144 C-28.69208131 141.66922657 -28.49104726 139.33758104 -28.28125 136.99609375 C-28 135 -28 135 -27 134 C-23.5625 133.75 -23.5625 133.75 -20 134 C-17.93487518 137.09768723 -17.7259369 137.84975609 -17.75 141.375 C-17.74226563 142.50035156 -17.74226563 142.50035156 -17.734375 143.6484375 C-18.19822076 147.75483674 -19.23819359 150.25167689 -22.20703125 153.16796875 C-23.49673828 154.16763672 -23.49673828 154.16763672 -24.8125 155.1875 C-25.66457031 155.86167969 -26.51664063 156.53585938 -27.39453125 157.23046875 C-30.94530515 159.64201384 -33.68355636 161 -38 161 C-37.60304363 162.62992692 -37.18167507 164.25392235 -36.75 165.875 C-36.51796875 166.77992188 -36.2859375 167.68484375 -36.046875 168.6171875 C-34.78762786 171.48338435 -33.81384098 171.83837427 -31 173 C-30.690625 173.66 -30.38125 174.32 -30.0625 175 C-28.58513461 177.78092308 -26.93375263 178.06978575 -24 179 C-23.01 179.33 -22.02 179.66 -21 180 C-19.18945873 180.09398229 -17.37547219 180.12991987 -15.5625 180.125 C-14.61503906 180.12757813 -13.66757813 180.13015625 -12.69140625 180.1328125 C-9.24914372 179.98351566 -9.24914372 179.98351566 -6 179 C-4.25379837 177.00420087 -4.25379837 177.00420087 -2.8125 174.5625 C-2.30332031 173.75941406 -1.79414063 172.95632812 -1.26953125 172.12890625 C0.86773626 168.54487304 1.09328667 166.5884254 1.03515625 162.3984375 C1.04385742 160.70267578 1.04385742 160.70267578 1.05273438 158.97265625 C1.0591814 156.59757363 1.03888329 154.22224933 0.99023438 151.84765625 C1.07195575 145.57287572 1.44007985 141.77232602 5.93359375 137.1640625 C9.55066079 134 9.55066079 134 12 134 C12.029729 135.48995483 12.029729 135.48995483 12.06005859 137.01000977 C12.13654883 140.72086494 12.22519658 144.43135003 12.31738281 148.1418457 C12.35549419 149.74300796 12.39037713 151.34425063 12.421875 152.94555664 C12.46791611 155.25696414 12.52584208 157.56782644 12.5859375 159.87890625 C12.59748871 160.58648575 12.60903992 161.29406525 12.62094116 162.02308655 C12.75791645 166.7120083 13.43201345 170.61402607 15 175 C16.91764174 176.3762794 16.91764174 176.3762794 19 177 C19.66 177.66 20.32 178.32 21 179 C24.65937559 180.35944093 28.39162487 180.0982257 32.25 180.0625 C34.14492187 180.04896484 34.14492187 180.04896484 36.078125 180.03515625 C37.52445313 180.01775391 37.52445313 180.01775391 39 180 C39 179.34 39 178.68 39 178 C40.0725 177.46375 41.145 176.9275 42.25 176.375 C48.6645014 172.67631573 50.69408562 166.68715171 53 160 C58.43396226 160.60377358 58.43396226 160.60377358 60.875 162.3125 C62 164 62 164 62 168 C61.34 168 60.68 168 60 168 C59.814375 168.804375 59.62875 169.60875 59.4375 170.4375 C56.04809905 178.83731974 50.00424291 184.85732345 42 189 C35.60958053 191.27929622 25.8558823 191.05892887 19.3828125 189.28125 C15.0876925 187.20889638 11.52827904 184.17545114 8 181 C4.60415241 182.49417294 1.8134815 184.54797695 -1.12109375 186.78125 C-7.91900241 191.19070427 -16.17989309 190.96637432 -24 190 C-32.25430687 187.58305263 -40.2792196 181.66365771 -44.4375 174.0625 C-46.20476702 170.08420289 -46.69123764 166.32267298 -47 162 C-47.61746094 161.98582031 -48.23492187 161.97164062 -48.87109375 161.95703125 C-58.31924989 161.42494331 -65.23193117 157.46042934 -72 151 C-79 142.38611111 -79 142.38611111 -79 137 C-79.66 137 -80.32 137 -81 137 C-81.95619733 133.00204108 -82.1039592 129.29196078 -82.0625 125.1875 C-82.05347656 124.02605469 -82.04445313 122.86460937 -82.03515625 121.66796875 C-82.02355469 120.78753906 -82.01195313 119.90710938 -82 119 C-80.515 118.505 -80.515 118.505 -79 118 C-78.94527912 116.60461746 -78.90688462 115.20859103 -78.875 113.8125 C-78.85179688 113.03519531 -78.82859375 112.25789063 -78.8046875 111.45703125 C-78.88244974 108.93956489 -78.88244974 108.93956489 -79.98828125 106.53125 C-82.25870728 100.85080186 -81.66754478 94.14836599 -79.6875 88.4375 C-78 85 -78 85 -75 83 C-74.58429992 80.77501085 -74.58429992 80.77501085 -74.70703125 78.2109375 C-74.71669922 77.26992187 -74.72636719 76.32890625 -74.73632812 75.359375 C-74.76146484 74.37453125 -74.78660156 73.3896875 -74.8125 72.375 C-74.82603516 71.38242188 -74.83957031 70.38984375 -74.85351562 69.3671875 C-74.88894257 66.91091928 -74.93833804 64.45572715 -75 62 C-74.34 62 -73.68 62 -73 62 C-72.97421875 61.39671875 -72.9484375 60.7934375 -72.921875 60.171875 C-72.45567294 53.60266422 -72.45567294 53.60266422 -70.0625 50.4375 C-68 49 -68 49 -66 49 C-66.04640625 48.31035156 -66.0928125 47.62070313 -66.140625 46.91015625 C-66.44860921 38.89156748 -65.39155278 33.05543119 -60.1640625 26.8046875 C-55.15875414 21.60760487 -50.50575791 17.34701217 -43.25 16.0625 C-40.95495274 15.66784623 -40.95495274 15.66784623 -39 15 C-37.69485264 12.78223378 -37.69485264 12.78223378 -37 10 C-27.72338401 -3.21843684 -14.55898091 -6.03928097 0 0 Z " fill="#1E6270" transform="translate(151,66)"/>
<path d="M0 0 C2.20249015 1.67682917 3.97089488 3.22546576 5.875 5.1875 C6.38546875 5.67025391 6.8959375 6.15300781 7.421875 6.65039062 C8.8671875 8.10546875 8.8671875 8.10546875 11 11 C10.76970167 15.3112553 9.17495666 17.32931896 6.19293213 20.32846069 C5.37419617 21.16136627 4.55546021 21.99427185 3.71191406 22.85241699 C2.80699219 23.75238403 1.90207031 24.65235107 0.96972656 25.57958984 C0.0113686 26.54664479 -0.94615078 27.51453139 -1.90289307 28.48318481 C-4.50099211 31.10805107 -7.11174393 33.71997502 -9.72578716 36.32895231 C-11.9064636 38.50748938 -14.08115803 40.69194986 -16.25596642 42.87634242 C-21.38503605 48.02759596 -26.52468279 53.16812622 -31.67089844 58.30224609 C-36.9831073 63.60236096 -42.27666751 68.92059512 -47.56150413 74.24799192 C-52.09854428 78.8202238 -56.64707097 83.3808003 -61.20499825 87.93221056 C-63.9276973 90.65127856 -66.64572627 93.3746386 -69.35271454 96.10935593 C-71.89707536 98.67880106 -74.45543668 101.23341726 -77.02541351 103.77723312 C-78.41691557 105.16172205 -79.79357913 106.56107436 -81.1697998 107.96075439 C-81.99981506 108.77674103 -82.82983032 109.59272766 -83.68499756 110.43344116 C-84.40177547 111.15055456 -85.11855339 111.86766796 -85.85705185 112.60651207 C-88 114 -88 114 -90.64753056 113.81542397 C-93.43027371 112.85085651 -94.78249561 111.69508186 -96.84057617 109.59765625 C-97.5544902 108.8802124 -98.26840424 108.16276855 -99.00395203 107.42358398 C-99.75932755 106.64442627 -100.51470306 105.86526855 -101.29296875 105.0625 C-102.08020828 104.267229 -102.86744781 103.47195801 -103.67854309 102.65258789 C-106.19113638 100.11099241 -108.68971421 97.5561419 -111.1875 95 C-113.69853904 92.44649857 -116.21237079 89.89580694 -118.72859192 87.34741211 C-120.29362669 85.76062553 -121.85515805 84.17037468 -123.41288757 82.57641602 C-124.11734512 81.85897217 -124.82180267 81.14152832 -125.54760742 80.40234375 C-126.16762131 79.76804443 -126.78763519 79.13374512 -127.42643738 78.48022461 C-128.94940311 76.90567449 -128.94940311 76.90567449 -131 76 C-130.63174813 70.91057027 -127.83539792 68.17872345 -124.4375 64.6875 C-123.91736328 64.13771484 -123.39722656 63.58792969 -122.86132812 63.02148438 C-121.58291183 61.67269654 -120.29260567 60.33519564 -119 59 C-115.7155596 59.57945005 -114.12506104 60.51860416 -111.828125 62.9140625 C-110.96078735 63.80411987 -110.96078735 63.80411987 -110.07592773 64.7121582 C-109.47337158 65.343396 -108.87081543 65.97463379 -108.25 66.625 C-106.99768031 67.90389927 -105.74378567 69.18125831 -104.48828125 70.45703125 C-103.88709473 71.0701416 -103.2859082 71.68325195 -102.66650391 72.31494141 C-100.63637478 74.36767379 -98.57067246 76.36694883 -96.4375 78.3125 C-95.87933594 78.82425781 -95.32117188 79.33601563 -94.74609375 79.86328125 C-92.24189421 81.49353196 -91.05021399 81.99385337 -88 82 C-85.1844082 80.10160043 -82.93005122 77.66487524 -80.5793457 75.22875977 C-79.85031036 74.497388 -79.12127502 73.76601624 -78.37014771 73.01248169 C-75.95782377 70.58575308 -73.56721966 68.13870438 -71.17578125 65.69140625 C-69.50765554 64.00701587 -67.83805444 62.32408546 -66.16703796 60.64256287 C-61.76703462 56.2082737 -57.3844636 51.75716237 -53.00610352 47.30151367 C-45.9909563 40.16810149 -38.95036046 33.05982504 -31.90871239 25.95258904 C-29.44475196 23.46059282 -26.98850848 20.96118237 -24.53327942 18.46058655 C-23.0331725 16.9404421 -21.53291142 15.42044975 -20.0324707 13.90063477 C-19.34621109 13.19775833 -18.65995148 12.4948819 -17.95289612 11.77070618 C-17.01301849 10.82194611 -17.01301849 10.82194611 -16.05415344 9.85401917 C-15.23704628 9.02245725 -15.23704628 9.02245725 -14.40343189 8.17409611 C-13 7 -13 7 -11 7 C-11 6.34 -11 5.68 -11 5 C-4.9758024 -0.88409999 -4.9758024 -0.88409999 0 0 Z " fill="#FAAA32" transform="translate(237,88)"/>
<path d="M0 0 C4.80252828 4.58855425 8.64012724 9.69485544 9.2109375 16.5234375 C9.26974158 20.53387582 9.10344248 24.12905257 8 28 C7.34 28 6.68 28 6 28 C6.350625 28.5775 6.70125 29.155 7.0625 29.75 C8.16413578 32.39392586 7.96737246 33.36171148 7 36 C6.505 36.99 6.505 36.99 6 38 C4.824375 37.7525 3.64875 37.505 2.4375 37.25 C-1.69650548 36.70795383 -3.5247592 37.75660699 -7.015625 40.0625 C-12.00114525 42.4178639 -18.02563343 41.6317973 -23.125 40 C-33.77899878 32.58852259 -33.77899878 32.58852259 -36.5625 26.6875 C-37.66640313 17.38317359 -37.68866359 11.11653337 -32.0625 3.3125 C-24.31698889 -5.37186095 -9.62372716 -7.04175158 0 0 Z " fill="#236573" transform="translate(209,182)"/>
<path d="M0 0 C2.64 0 5.28 0 8 0 C8.33 1.65 8.66 3.3 9 5 C9.67546875 4.95359375 10.3509375 4.9071875 11.046875 4.859375 C18.24426451 4.56815115 18.24426451 4.56815115 21.625 6.5 C23.10909638 9.19835705 23.09604788 10.09382759 22.9375 13.0625 C22.958125 14.361875 22.97875 15.66125 23 17 C24.64821244 18.03013277 26.31503702 19.03114628 28 20 C28.3125 23.6875 28.3125 23.6875 28 27 C26.35 27.33 24.7 27.66 23 28 C22.95101562 28.84304687 22.90203125 29.68609375 22.8515625 30.5546875 C22.77679688 31.65039062 22.70203125 32.74609375 22.625 33.875 C22.55539063 34.96554688 22.48578125 36.05609375 22.4140625 37.1796875 C22 40 22 40 20 42 C17.72265625 42.23828125 17.72265625 42.23828125 15.0625 42.3125 C12.37761904 42.45153045 12.37761904 42.45153045 10 43 C8.9590934 44.64142963 7.95495674 46.30712215 7 48 C4.2133466 48.47098367 1.84839223 48.23347477 -1 48 C-1.12375 47.360625 -1.2475 46.72125 -1.375 46.0625 C-1.58125 45.381875 -1.7875 44.70125 -2 44 C-4.86900055 42.56549973 -7.73472913 42.62088917 -10.90625 42.37890625 C-13 42 -13 42 -15 40 C-15.54699274 37.1868945 -15.89046982 34.37492488 -16.2421875 31.53125 C-16.74859134 28.84567484 -16.74859134 28.84567484 -19.0703125 27.65625 C-19.70710938 27.4396875 -20.34390625 27.223125 -21 27 C-21.3125 23.6875 -21.3125 23.6875 -21 20 C-18.5625 18.375 -18.5625 18.375 -16 17 C-15.15701426 14.61915122 -15.15701426 14.61915122 -15 12 C-14.22222222 7.22222222 -14.22222222 7.22222222 -12 5 C-9.9911178 4.96811298 -7.97993744 4.94104942 -5.97265625 5.02734375 C-3.78493865 5.09667321 -3.78493865 5.09667321 -1 4 C-0.26676204 1.98491642 -0.26676204 1.98491642 0 0 Z " fill="#1F636E" transform="translate(119,93)"/>
<path d="M0 0 C1.0736045 3.49347496 1.1334911 6.732317 1.125 10.375 C1.12886719 12.02628906 1.12886719 12.02628906 1.1328125 13.7109375 C1 17 1 17 0.34375 20.1484375 C-0.06221479 23.51609993 0.44027122 24.53496624 2.375 27.25 C2.83648437 27.91515625 3.29796875 28.5803125 3.7734375 29.265625 C4.17820313 29.83796875 4.58296875 30.4103125 5 31 C6.65497356 34.30994713 6.10084335 37.99123 6.0625 41.625 C6.05798828 42.42679688 6.05347656 43.22859375 6.04882812 44.0546875 C6.03703168 46.03649006 6.01909605 48.01825433 6 50 C5.34 50 4.68 50 4 50 C4.2165625 50.78761719 4.433125 51.57523438 4.65625 52.38671875 C7.25335995 62.54670907 9.36036668 73.06835821 4.35546875 82.7890625 C1.77099127 87.00466553 -1.05132763 91.03254476 -4 95 C-7.78630702 94.24432948 -9.4041044 92.87402727 -12 90 C-10.29231921 86.44961249 -8.25801816 83.20601621 -6.12109375 79.90234375 C-4.08483565 76.44709046 -3.76087345 73.23917763 -3.4375 69.3125 C-3.35371094 68.31863281 -3.26992187 67.32476562 -3.18359375 66.30078125 C-3.12300781 65.54152344 -3.06242187 64.78226562 -3 64 C-4.175625 64.495 -5.35125 64.99 -6.5625 65.5 C-10.52480027 66.96127386 -13.74868646 67.66687271 -18 67 C-20.38164192 64.15739513 -21 62.71594733 -21 59 C-20.39671875 58.91363281 -19.7934375 58.82726562 -19.171875 58.73828125 C-13.76742864 57.8196539 -13.76742864 57.8196539 -9.5625 54.4375 C-9.046875 53.633125 -8.53125 52.82875 -8 52 C-7.01 51.505 -7.01 51.505 -6 51 C-3.32251074 46.3887685 -3.21644546 41.16362442 -4 36 C-5.89894687 31.59590398 -8.00313916 28.6645739 -12 26 C-11.24590164 19.46448087 -11.24590164 19.46448087 -9.98046875 17.07421875 C-8.8195391 14.61822813 -8.76664145 12.76580534 -8.6875 10.0625 C-8.36989122 6.15302467 -8.10638671 5.13998251 -5.625 1.875 C-3 0 -3 0 0 0 Z " fill="#1F6370" transform="translate(240,124)"/>
<path d="M0 0 C4.38630375 0.25801787 6.91329796 2.23618948 10.28515625 4.7890625 C12.39534263 6.27917134 14.55601126 7.18533709 17 8 C17 9.65 17 11.3 17 13 C15.96875 13.5775 14.9375 14.155 13.875 14.75 C11.39782373 16.15123102 9.14944769 17.60038987 6.8125 19.25 C4 21 4 21 0 21 C0.33 18.69 0.66 16.38 1 14 C-26.5428512 16.78561384 -47.9438574 26.26816388 -67 47 C-67.78503906 48.11375 -67.78503906 48.11375 -68.5859375 49.25 C-69.05257812 49.8275 -69.51921875 50.405 -70 51 C-72.6875 51.25 -72.6875 51.25 -75 51 C-75.58133574 47.26284166 -75.07099048 46.09717137 -72.796875 42.984375 C-71.79753029 41.89114227 -70.78071679 40.81370604 -69.75 39.75 C-69.20714355 39.17934814 -68.66428711 38.60869629 -68.10498047 38.02075195 C-49.62354316 19.05099483 -26.27268376 9.1422906 0 8 C-0.185625 6.865625 -0.37125 5.73125 -0.5625 4.5625 C-0.7790625 2.7990625 -0.7790625 2.7990625 -1 1 C-0.67 0.67 -0.34 0.34 0 0 Z " fill="#FAB548" transform="translate(153,38)"/>
<path d="M0 0 C2.85879777 1.58365057 4.90106918 3.51322326 7 6 C7.55300781 6.61875 8.10601562 7.2375 8.67578125 7.875 C10.32736624 10.52533108 10.3096213 12.15626048 10.1875 15.25 C10.16042969 16.14203125 10.13335937 17.0340625 10.10546875 17.953125 C10.07066406 18.62859375 10.03585938 19.3040625 10 20 C9.34 20 8.68 20 8 20 C7.95875 20.556875 7.9175 21.11375 7.875 21.6875 C6.53375322 25.23222364 3.99075278 26.78684295 1 29 C-2.73052567 30.24350856 -6.12552043 30.52198871 -10 30 C-14.80232849 27.59883576 -17.70264475 24.85978996 -20 20 C-20.8150364 15.34867161 -21.1414614 11.01097588 -18.75390625 6.8046875 C-13.36557962 0.38169466 -8.31102495 -1.3464789 0 0 Z " fill="#F8FAFA" transform="translate(200,185)"/>
<path d="M0 0 C1.11375 0.3403125 1.11375 0.3403125 2.25 0.6875 C2.75567729 3.24899628 3.25470132 5.81149465 3.75 8.375 C3.89308594 9.09623047 4.03617188 9.81746094 4.18359375 10.56054688 C4.90571887 14.32591359 5.4324976 17.83223813 5.25 21.6875 C3.27 21.6875 1.29 21.6875 -0.75 21.6875 C-1.08 20.6975 -1.41 19.7075 -1.75 18.6875 C-2.41 18.6875 -3.07 18.6875 -3.75 18.6875 C-4.41 21.6575 -5.07 24.6275 -5.75 27.6875 C-6.41 27.6875 -7.07 27.6875 -7.75 27.6875 C-8.08 37.5875 -8.41 47.4875 -8.75 57.6875 C-10.4 57.6875 -12.05 57.6875 -13.75 57.6875 C-16.68461374 54.75288626 -15.12099625 45.72550335 -15.15039062 41.77563477 C-15.05615025 32.0460087 -13.22981676 23.72259566 -9.75 14.6875 C-11.73 14.6875 -13.71 14.6875 -15.75 14.6875 C-16.08 13.3675 -16.41 12.0475 -16.75 10.6875 C-15.16728767 9.41589334 -13.58380365 8.14524715 -12 6.875 C-11.11828125 6.16730469 -10.2365625 5.45960937 -9.328125 4.73046875 C-8.47734375 4.05628906 -7.6265625 3.38210937 -6.75 2.6875 C-5.75226563 1.78451172 -5.75226563 1.78451172 -4.734375 0.86328125 C-2.75 -0.3125 -2.75 -0.3125 0 0 Z " fill="#FBB84D" transform="translate(71.75,96.3125)"/>
<path d="M0 0 C8.12861736 4.25723473 8.12861736 4.25723473 10 8 C10.09499503 9.49756871 10.12987198 10.99942932 10.125 12.5 C10.12886719 13.69109375 10.12886719 13.69109375 10.1328125 14.90625 C10 17 10 17 9 19 C8.34 19 7.68 19 7 19 C6.731875 19.61875 6.46375 20.2375 6.1875 20.875 C5 23 5 23 2 25 C-2.77722308 25.77897 -7.78153571 26.23384202 -12.12109375 23.8203125 C-15.45148415 20.48193555 -16.47710863 17.15276203 -16.875 12.5 C-16.62092243 8.11413715 -15.64866657 5.88027198 -12.5 2.8125 C-8.35779092 -0.2013393 -5.00235865 -1.52123966 0 0 Z " fill="#E7EAE8" transform="translate(126,104)"/>
<path d="M0 0 C6.69750953 0.73887116 10.33860463 5.5340358 15 10 C15.72703125 10.64066406 16.4540625 11.28132812 17.203125 11.94140625 C21.83677891 16.15125036 21.83677891 16.15125036 22.625 20.25 C22 23 22 23 20.8125 24.875 C18.31985813 26.42215702 16.90669239 26.34643717 14 26 C11.60546875 24.3125 11.60546875 24.3125 9.1875 22 C8.32769531 21.18144531 7.46789062 20.36289063 6.58203125 19.51953125 C5.72996094 18.68808594 4.87789062 17.85664063 4 17 C2.79923828 15.89205078 2.79923828 15.89205078 1.57421875 14.76171875 C0.84847656 14.07722656 0.12273437 13.39273438 -0.625 12.6875 C-1.27726563 12.07261719 -1.92953125 11.45773438 -2.6015625 10.82421875 C-4 9 -4 9 -4 5 C-3.34 5 -2.68 5 -2 5 C-1.34 3.35 -0.68 1.7 0 0 Z " fill="#F5AC40" transform="translate(217,215)"/>
<path d="M0 0 C2.75329021 1.79562405 4.52627461 3.05254922 6 6 C6.3675936 9.89649216 6.2943439 12.3711744 4.625 15.9375 C1.15685479 18.66247123 -1.31502282 18.77696782 -5.6484375 18.546875 C-8 18 -8 18 -10.625 15.4375 C-12.19564175 11.51089563 -12.68437046 9.1822639 -12 5 C-8.57935012 0.12816532 -5.85570965 -0.94109619 0 0 Z " fill="#F8AE3E" transform="translate(161,258)"/>
<path d="M0 0 C2.875 1.4375 2.875 1.4375 5 4 C5.52739799 7.06108317 5.56075289 9.94242108 5 13 C2.60713116 15.39286884 1.90552906 15.32050616 -1.375 15.375 C-4.5422782 15.28829512 -5.79996909 15.12197007 -8.5625 13.4375 C-10.56331202 10.04481874 -10.55326548 7.87285839 -10 4 C-7.25657347 -0.1151398 -4.81370572 -0.78591114 0 0 Z " fill="#F8B042" transform="translate(125,109)"/>
<path d="M0 0 C2.46943529 3.70415293 2.46913089 5.62144505 2 10 C0.4375 11.9375 0.4375 11.9375 -2 13 C-6.38939738 13.38503486 -8.28986601 13.47342266 -12 11 C-11.41781807 7.49138358 -10.18286308 5.75070647 -7.6875 3.25 C-6.79611328 2.32960937 -6.79611328 2.32960937 -5.88671875 1.390625 C-4 0 -4 0 0 0 Z " fill="#175F6F" transform="translate(217,148)"/>
<path d="M0 0 C0.33 0.99 0.66 1.98 1 3 C0.67 3.66 0.34 4.32 0 5 C2.31 5 4.62 5 7 5 C7 5.33 7 5.66 7 6 C4.69 6 2.38 6 0 6 C-0.103125 6.61875 -0.20625 7.2375 -0.3125 7.875 C-1 10 -1 10 -4 12 C-5.97265625 12.125 -5.97265625 12.125 -8.0625 12 C-9.361875 12 -10.66125 12 -12 12 C-13.95216435 13.95216435 -14.84826645 15.53199953 -16 18 C-16.12375 17.030625 -16.2475 16.06125 -16.375 15.0625 C-16.58125 14.051875 -16.7875 13.04125 -17 12 C-17.66 11.67 -18.32 11.34 -19 11 C-14.01728401 6.01728401 -10.15013212 4.10547767 -3.2578125 2.640625 C-2.51273438 2.42921875 -1.76765625 2.2178125 -1 2 C-0.67 1.34 -0.34 0.68 0 0 Z " fill="#D7E5E6" transform="translate(119,87)"/>
<path d="M0 0 C0 2.31 0 4.62 0 7 C0.66 7 1.32 7 2 7 C1.65930765 10.15140423 1.41923159 11.60781561 -0.9375 13.8125 C-3 15 -3 15 -5 15 C-5 17.31 -5 19.62 -5 22 C-5.99 21.67 -6.98 21.34 -8 21 C-8.054348 18.9377952 -8.09294961 16.87517184 -8.125 14.8125 C-8.14820312 13.66394531 -8.17140625 12.51539062 -8.1953125 11.33203125 C-8.0021081 8.0359641 -7.5307773 5.90588233 -6 3 C-1.75862069 0 -1.75862069 0 0 0 Z " fill="#EAF0F0" transform="translate(103,98)"/>
<path d="M0 0 C0 3 0 3 -2.45922852 5.78393555 C-3.59165673 6.90909272 -4.73217207 8.02614545 -5.87890625 9.13671875 C-6.48379379 9.73498978 -7.08868134 10.3332608 -7.7118988 10.94966125 C-9.65515769 12.86947259 -11.60822265 14.77891143 -13.5625 16.6875 C-16.1092352 19.18759989 -18.65168956 21.69199032 -21.19140625 24.19921875 C-21.80073502 24.7999118 -22.41006378 25.40060486 -23.03785706 26.01950073 C-26.75595831 29.70496603 -30.31566435 33.46966427 -33.69946289 37.46801758 C-35.35011952 39.41242726 -37.1161169 41.21578798 -38.9375 43 C-39.81728516 43.86625 -39.81728516 43.86625 -40.71484375 44.75 C-41.35099609 45.36875 -41.35099609 45.36875 -42 46 C-42.99 45.67 -43.98 45.34 -45 45 C-30.15 30.15 -15.3 15.3 0 0 Z " fill="#F7DAAC" transform="translate(232,118)"/>
<path d="M0 0 C0.97066406 -0.00515625 1.94132812 -0.0103125 2.94140625 -0.015625 C5.4375 0.25 5.4375 0.25 7.4375 2.25 C6.37789062 2.27578125 5.31828125 2.3015625 4.2265625 2.328125 C2.83849999 2.3843978 1.45048075 2.44174533 0.0625 2.5 C-0.98550781 2.52126953 -0.98550781 2.52126953 -2.0546875 2.54296875 C-4.33967646 2.61035782 -4.33967646 2.61035782 -7.5625 3.25 C-8.93062804 5.11095756 -8.93062804 5.11095756 -9.5625 7.25 C-10.5525 7.91 -11.5425 8.57 -12.5625 9.25 C-13.13998803 11.21361864 -13.13998803 11.21361864 -13.25 13.375 C-13.353125 14.65375 -13.45625 15.9325 -13.5625 17.25 C-9.6025 17.25 -5.6425 17.25 -1.5625 17.25 C-1.5625 17.58 -1.5625 17.91 -1.5625 18.25 C-6.1825 18.58 -10.8025 18.91 -15.5625 19.25 C-15.5625 9.45512821 -15.5625 9.45512821 -11.125 4.5625 C-7.2319711 1.04927879 -5.1835104 -0.02760858 0 0 Z " fill="#AAC5C5" transform="translate(178.5625,72.75)"/>
<path d="M0 0 C0 3 0 3 -2.59765625 5.85546875 C-3.74602787 6.97294398 -4.90140444 8.08325122 -6.0625 9.1875 C-7.26490231 10.35744443 -8.46543722 11.52931125 -9.6640625 12.703125 C-10.24317383 13.26966797 -10.82228516 13.83621094 -11.41894531 14.41992188 C-13.9214257 16.92085656 -16.21144675 19.58257229 -18.5 22.27734375 C-20.86470366 24.99305811 -23.42333018 27.48617579 -26 30 C-26.99 29.67 -27.98 29.34 -29 29 C-19.43 19.43 -9.86 9.86 0 0 Z " fill="#FCC77A" transform="translate(186,133)"/>
<path d="M0 0 C1.49080078 0.02707031 1.49080078 0.02707031 3.01171875 0.0546875 C3.77097656 0.07789063 4.53023437 0.10109375 5.3125 0.125 C5.3125 0.455 5.3125 0.785 5.3125 1.125 C2.0125 1.125 -1.2875 1.125 -4.6875 1.125 C-5.3475 2.445 -6.0075 3.765 -6.6875 5.125 C-7.55375 5.764375 -8.42 6.40375 -9.3125 7.0625 C-13.08287639 11.92430114 -12.07876462 17.18647257 -11.6875 23.125 C-13.86243941 21.38504847 -14.62260776 20.4409095 -15.19140625 17.671875 C-15.29820351 12.57408557 -15.26329814 9.06608611 -11.875 5.0625 C-8.07856558 1.22856993 -5.43205947 -0.12781316 0 0 Z " fill="#AEC7C8" transform="translate(194.6875,184.875)"/>
<path d="M0 0 C0 4.25491168 -2.47159742 6.07313316 -5.25 9 C-5.98669922 9.80050781 -5.98669922 9.80050781 -6.73828125 10.6171875 C-9.31357494 13.37790233 -11.88308798 15.8626889 -15 18 C-15.66 17.67 -16.32 17.34 -17 17 C-11.39 11.39 -5.78 5.78 0 0 Z " fill="#FBBE64" transform="translate(204,115)"/>
<path d="M0 0 C0.58265625 0.22558594 1.1653125 0.45117188 1.765625 0.68359375 C0.775625 1.34359375 -0.214375 2.00359375 -1.234375 2.68359375 C-0.244375 4.16859375 -0.244375 4.16859375 0.765625 5.68359375 C-0.41 6.30234375 -0.41 6.30234375 -1.609375 6.93359375 C-4.29329156 8.72287145 -5.11536449 9.73347514 -6.234375 12.68359375 C-6.358125 11.71421875 -6.481875 10.74484375 -6.609375 9.74609375 C-6.815625 8.73546875 -7.021875 7.72484375 -7.234375 6.68359375 C-7.894375 6.35359375 -8.554375 6.02359375 -9.234375 5.68359375 C-8.16544282 4.64769037 -7.07859012 3.63025433 -5.984375 2.62109375 C-5.38109375 2.05261719 -4.7778125 1.48414062 -4.15625 0.8984375 C-2.234375 -0.31640625 -2.234375 -0.31640625 0 0 Z " fill="#CDDCDF" transform="translate(109.234375,92.31640625)"/>
<path d="M0 0 C0.66 0.33 1.32 0.66 2 1 C1.04882866 2.1725131 0.08882991 3.33787015 -0.875 4.5 C-1.40867187 5.1496875 -1.94234375 5.799375 -2.4921875 6.46875 C-2.98976563 6.9740625 -3.48734375 7.479375 -4 8 C-4.66 8 -5.32 8 -6 8 C-6 12.95 -6 17.9 -6 23 C-6.66 22.67 -7.32 22.34 -8 22 C-9.07211906 10.83634752 -9.07211906 10.83634752 -6.4765625 6.390625 C-4.73963138 4.44809795 -2.98051731 2.69080135 -1 1 C-0.67 0.67 -0.34 0.34 0 0 Z " fill="#B3C7C5" transform="translate(93,119)"/>
<path d="M0 0 C0 0.66 0 1.32 0 2 C-1.97726249 3.57640517 -4.05560498 4.95456984 -6.15234375 6.3671875 C-8.24260221 8.21439265 -8.62930292 9.28155477 -9 12 C-9.99 11.67 -10.98 11.34 -12 11 C-11.41781807 7.49138358 -10.18286308 5.75070647 -7.6875 3.25 C-6.79611328 2.32960937 -6.79611328 2.32960937 -5.88671875 1.390625 C-4 0 -4 0 0 0 Z " fill="#3E7D85" transform="translate(217,148)"/>
<path d="M0 0 C0.99 0.33 1.98 0.66 3 1 C-0.96 4.96 -4.92 8.92 -9 13 C-9.99 12.67 -10.98 12.34 -12 12 C-8.04 8.04 -4.08 4.08 0 0 Z " fill="#FAE9CD" transform="translate(199,151)"/>
<path d="M0 0 C1.33332095 2.6666419 0.67102033 4.16680303 0 7 C-0.66 7 -1.32 7 -2 7 C-1.95399658 7.62567871 -1.90799316 8.25135742 -1.8605957 8.89599609 C-1.66185164 11.72146976 -1.48689757 14.54792368 -1.3125 17.375 C-1.23966797 18.35984375 -1.16683594 19.3446875 -1.09179688 20.359375 C-1.03701172 21.30039063 -0.98222656 22.24140625 -0.92578125 23.2109375 C-0.86817627 24.08024902 -0.81057129 24.94956055 -0.7512207 25.84521484 C-0.83331787 26.55629395 -0.91541504 27.26737305 -1 28 C-1.99 28.66 -2.98 29.32 -4 30 C-3.83242187 28.85917969 -3.66484375 27.71835938 -3.4921875 26.54296875 C-2.84329258 21.37343925 -3.00465408 16.28713728 -3.21484375 11.09179688 C-3.30611209 6.49104294 -2.78589352 3.6975079 0 0 Z " fill="#8EB0B3" transform="translate(78,121)"/>
<path d="M0 0 C0.66 0.33 1.32 0.66 2 1 C0.60919892 2.58775549 -0.78788404 4.17000939 -2.1875 5.75 C-2.96480469 6.63171875 -3.74210937 7.5134375 -4.54296875 8.421875 C-6.88455246 10.87886268 -9.30158265 12.94862766 -12 15 C-12 12 -12 12 -9.375 9.08203125 C-8.25750594 7.98449244 -7.13214357 6.89492105 -6 5.8125 C-5.42765625 5.25369141 -4.8553125 4.69488281 -4.265625 4.11914062 C-2.85037212 2.73926907 -1.42602845 1.36873266 0 0 Z " fill="#FCEDD0" transform="translate(98,72)"/>
<path d="M0 0 C0 0.66 0 1.32 0 2 C-6.15138553 4.23686747 -12.48853347 4.88533098 -19 4 C-20.66699219 2.47729492 -20.66699219 2.47729492 -22 1 C-20.08574219 1.01740234 -20.08574219 1.01740234 -18.1328125 1.03515625 C-16.46354313 1.04453417 -14.79427217 1.05363437 -13.125 1.0625 C-12.28324219 1.07087891 -11.44148438 1.07925781 -10.57421875 1.08789062 C-9.76855469 1.09111328 -8.96289062 1.09433594 -8.1328125 1.09765625 C-7.38918457 1.10289307 -6.64555664 1.10812988 -5.87939453 1.11352539 C-3.6373629 0.9780948 -2.26719544 0 0 0 Z " fill="#7CA4AA" transform="translate(108,189)"/>
<path d="M0 0 C0.33 0 0.66 0 1 0 C1.05391993 1.79133978 1.09275571 3.58313899 1.125 5.375 C1.14820313 6.37273437 1.17140625 7.37046875 1.1953125 8.3984375 C1 11 1 11 -1 13 C-3.00527797 13.25874554 -5.0115695 13.51365695 -7.0234375 13.71484375 C-9.31236153 14.04506402 -11.04238794 14.77649246 -13 16 C-13 16.66 -13 17.32 -13 18 C-13.66 17.67 -14.32 17.34 -15 17 C-14.125 14.5625 -14.125 14.5625 -12 12 C-9.36792255 11.42799624 -6.86917182 11.24976349 -4.1796875 11.140625 C-2.02219944 11.24223764 -2.02219944 11.24223764 -1 10 C-0.76712992 8.31816052 -0.58735834 6.6287584 -0.4375 4.9375 C-0.35371094 4.01839844 -0.26992187 3.09929687 -0.18359375 2.15234375 C-0.12300781 1.44207031 -0.06242188 0.73179688 0 0 Z " fill="#A9C3C5" transform="translate(141,123)"/>
<path d="M0 0 C0.99 0.33 1.98 0.66 3 1 C-0.3 4.3 -3.6 7.6 -7 11 C-7.99 10.67 -8.98 10.34 -10 10 C-6.7 6.7 -3.4 3.4 0 0 Z " fill="#FAB958" transform="translate(167,152)"/>
<path d="M0 0 C0.66 0.33 1.32 0.66 2 1 C0.87895467 2.31587941 -0.24696965 3.62760353 -1.375 4.9375 C-2.00148437 5.66839844 -2.62796875 6.39929688 -3.2734375 7.15234375 C-5 9 -5 9 -7 10 C-7.66 10.99 -8.32 11.98 -9 13 C-8.38297446 7.60102654 -5.92102734 4.54749424 -1.75 1.1875 C-1.1725 0.795625 -0.595 0.40375 0 0 Z " fill="#518A91" transform="translate(183,180)"/>
<path d="M0 0 C0.66 0.33 1.32 0.66 2 1 C0.92807816 2.3218362 -0.15802695 3.63217927 -1.25 4.9375 C-1.85328125 5.66839844 -2.4565625 6.39929688 -3.078125 7.15234375 C-5.10741134 9.10326334 -6.254407 9.61731779 -9 10 C-7.61811547 6.78956118 -6.07578097 4.95063635 -3.375 2.75 C-2.74335937 2.22921875 -2.11171875 1.7084375 -1.4609375 1.171875 C-0.73777344 0.59179688 -0.73777344 0.59179688 0 0 Z " fill="#47848A" transform="translate(124,66)"/>
<path d="M0 0 C0.598125 0.226875 1.19625 0.45375 1.8125 0.6875 C0.8534375 1.491875 0.8534375 1.491875 -0.125 2.3125 C-2.57279404 5.13117193 -2.85464612 7.02610732 -3.1875 10.6875 C-3.8475 10.3575 -4.5075 10.0275 -5.1875 9.6875 C-5.5508218 3.26881488 -5.5508218 3.26881488 -3.9375 0.6875 C-2.1875 -0.3125 -2.1875 -0.3125 0 0 Z " fill="#C5D8D7" transform="translate(191.1875,108.3125)"/>
<path d="M0 0 C0.33 0.99 0.66 1.98 1 3 C-3.455 6.96 -3.455 6.96 -8 11 C-8.66 10.67 -9.32 10.34 -10 10 C-6.7 6.7 -3.4 3.4 0 0 Z " fill="#F7E4C8" transform="translate(159,191)"/>
<path d="M0 0 C0 0.33 0 0.66 0 1 C-1.98 1 -3.96 1 -6 1 C-6.33 1.99 -6.66 2.98 -7 4 C-7.99 4.66 -8.98 5.32 -10 6 C-10.73343428 9.06556598 -10.73343428 9.06556598 -11 12 C-11.33 12 -11.66 12 -12 12 C-12.4206933 7.70892835 -12.45543836 5.64865463 -9.9375 2.0625 C-6.35134537 -0.45543836 -4.29107165 -0.4206933 0 0 Z " fill="#F8C16E" transform="translate(161,258)"/>
<path d="M0 0 C1.134375 0.020625 2.26875 0.04125 3.4375 0.0625 C3.1075 0.7225 2.7775 1.3825 2.4375 2.0625 C1.1175 2.0625 -0.2025 2.0625 -1.5625 2.0625 C-1.8925 4.3725 -2.2225 6.6825 -2.5625 9.0625 C-3.2225 9.0625 -3.8825 9.0625 -4.5625 9.0625 C-4.66015625 2.91015625 -4.66015625 2.91015625 -4.5625 1.0625 C-3.5625 0.0625 -3.5625 0.0625 0 0 Z " fill="#538990" transform="translate(127.5625,199.9375)"/>
<path d="M0 0 C0.66 0.33 1.32 0.66 2 1 C1.0919838 2.13199353 0.17316174 3.25532363 -0.75 4.375 C-1.26046875 5.00148438 -1.7709375 5.62796875 -2.296875 6.2734375 C-4.08199481 8.08312318 -5.67949644 9.00117455 -8 10 C-6.34908222 5.70761377 -3.26245434 3.1206085 0 0 Z " fill="#4D888D" transform="translate(97,87)"/>
<path d="M0 0 C-1.29299694 2.88437779 -2.65941363 4.87219421 -5 7 C-5.99 6.67 -6.98 6.34 -8 6 C-7.0479279 4.99403703 -6.08812654 3.99538437 -5.125 3 C-4.59132813 2.443125 -4.05765625 1.88625 -3.5078125 1.3125 C-2 0 -2 0 0 0 Z " fill="#FBB857" transform="translate(120,147)"/>
<path d="M0 0 C0.66 0.33 1.32 0.66 2 1 C-1.61328125 5.6875 -1.61328125 5.6875 -3 7 C-3.99 7 -4.98 7 -6 7 C-4.77065985 3.31197956 -3.06140622 2.27643027 0 0 Z " fill="#B4CACC" transform="translate(129,74)"/>
<path d="M0 0 C0.66 0.33 1.32 0.66 2 1 C0.02 3.31 -1.96 5.62 -4 8 C-4.33 7.01 -4.66 6.02 -5 5 C-3.35 3.35 -1.7 1.7 0 0 Z " fill="#D0DBDB" transform="translate(93,119)"/>
</svg>
